<svg xmlns="http://www.w3.org/2000/svg" viewBox="0 0 1089.64 757.8"><defs><style>.cls-1{fill:#c99;}.cls-2{fill:#ffd7e0;}.cls-3{fill:#ccc;}.cls-4{fill:#966;}.cls-5{fill:#bcbec0;}.cls-6{fill:#999;}.cls-7{fill:#669;}.cls-8{fill:#54508f;}.cls-9{fill:#f5a688;}.cls-10{fill:#099;}.cls-11{fill:#366;}.cls-12{fill:#ffccae;}.cls-13{fill:#333;}.cls-14{fill:#666;}.cls-15{fill:#f5b592;}</style></defs><g id="Layer_13" data-name="Layer 13"><g id="tree"><circle class="cls-1" cx="327.04" cy="345.56" r="41.05"/><circle class="cls-1" cx="302.41" cy="395.97" r="41.05"/><ellipse class="cls-1" cx="341.32" cy="402.51" rx="41.05" ry="63.65"/><ellipse class="cls-1" cx="302.41" cy="449.31" rx="41.05" ry="36.5"/><ellipse class="cls-2" cx="351.72" cy="468.19" rx="41.05" ry="36.5"/><ellipse class="cls-1" cx="360.6" cy="412.81" rx="41.05" ry="36.5"/><ellipse class="cls-1" cx="323.99" cy="479.6" rx="41.05" ry="36.5"/><path class="cls-3" d="M329.66,333.09c-1.23,103.35,5.8,243.05,11.23,260.85h-32c14-39,18.7-157.5,17.47-260.85Z"/><path class="cls-3" d="M315.77,404l10.93,1.87-.82,3.36-10.56-3.36A1,1,0,0,1,315.77,404Z"/><path class="cls-3" d="M315.13,476.36l9.73,1.67-.82,3.36-9.4-3A1.05,1.05,0,0,1,315.13,476.36Z"/><path class="cls-3" d="M338.78,441.3l-8,5.73L329,444.09l8.69-4.58A1.05,1.05,0,0,1,338.78,441.3Z"/><path class="cls-3" d="M333.68,380l-3.85,2.76a1.31,1.31,0,0,1-1.87-.37l-.35-.56a1.31,1.31,0,0,1,.51-1.84l4.18-2.21A1.31,1.31,0,0,1,333.68,380Z"/></g><g id="tree-2" data-name="tree"><circle class="cls-4" cx="557.96" cy="309.69" r="50.31"/><circle class="cls-4" cx="535.76" cy="367.39" r="50.31"/><ellipse class="cls-4" cx="563.03" cy="360" rx="50.31" ry="78.02"/><ellipse class="cls-4" cx="512.72" cy="412.13" rx="50.31" ry="44.74"/><ellipse class="cls-4" cx="577.84" cy="440.3" rx="66.06" ry="44.74"/><ellipse class="cls-4" cx="596.95" cy="371.93" rx="50.31" ry="44.74"/><ellipse class="cls-4" cx="525.26" cy="444.09" rx="50.31" ry="44.74"/><path class="cls-3" d="M559,319.8c-1.27,104.4,12.45,247.91,26.84,271.65.68,1.13-.28,2.49-1.77,2.49H527.55c-1.45,0-2.42-1.3-1.8-2.43,23-42,30.67-164.95,29.29-271.71a1.86,1.86,0,0,1,2-1.73h0A1.86,1.86,0,0,1,559,319.8Z"/><path class="cls-3" d="M538.9,360.59l16.5,2.82-1,4.12-15.95-5.07A1,1,0,0,1,538.9,360.59Z"/><path class="cls-3" d="M537.84,449.25l15.3,2.62-1,4.11-14.79-4.7A1,1,0,0,1,537.84,449.25Z"/><path class="cls-3" d="M575.45,404.05l-12.57,9-2.23-3.6,13.69-7.21A1.05,1.05,0,0,1,575.45,404.05Z"/><path class="cls-3" d="M567.42,329.27,559,335.33a1.31,1.31,0,0,1-1.87-.37l-.75-1.22a1.3,1.3,0,0,1,.5-1.84l9.19-4.85A1.31,1.31,0,0,1,567.42,329.27Z"/></g><g id="tree-3" data-name="tree"><circle class="cls-5" cx="239.41" cy="388.48" r="36.62"/><circle class="cls-5" cx="223.25" cy="430.47" r="36.62"/><ellipse class="cls-5" cx="243.1" cy="425.1" rx="36.62" ry="56.78"/><ellipse class="cls-5" cx="206.48" cy="463.04" rx="36.62" ry="32.56"/><ellipse class="cls-5" cx="253.88" cy="483.54" rx="48.08" ry="32.56"/><ellipse class="cls-5" cx="267.79" cy="433.78" rx="36.62" ry="32.56"/><ellipse class="cls-5" cx="215.61" cy="486.3" rx="36.62" ry="32.56"/><path class="cls-6" d="M229.29,426.17l8.25,1.41-.72,3-8-2.53A1,1,0,0,1,229.29,426.17Z"/><path class="cls-6" d="M228.84,490.75,235.9,492l-.73,3-6.82-2.17A1.05,1.05,0,0,1,228.84,490.75Z"/><path class="cls-6" d="M248.77,459.58,243,463.73l-1.62-2.62,6.29-3.32A1.06,1.06,0,0,1,248.77,459.58Z"/><path class="cls-6" d="M242.11,405.73l-1.65,1.19a1.31,1.31,0,0,1-1.87-.37l-.15-.24a1.31,1.31,0,0,1,.5-1.85l1.8-.94A1.3,1.3,0,0,1,242.11,405.73Z"/><path class="cls-6" d="M236.31,395.18c-.94,78.62,3.32,193.74,8,198.44h-19.7c7.51-14.28,10.13-119.82,9.19-198.44h2.49Z"/></g><g id="tree-4" data-name="tree"><circle class="cls-7" cx="143.08" cy="393.12" r="35.47"/><circle class="cls-7" cx="123.36" cy="436.91" r="35.47"/><ellipse class="cls-7" cx="123.36" cy="466.17" rx="35.47" ry="31.55"/><ellipse class="cls-7" cx="141.57" cy="504.63" rx="46.57" ry="31.55"/><ellipse class="cls-7" cx="162.47" cy="429.57" rx="35.47" ry="31.55"/><ellipse class="cls-7" cx="158.83" cy="472.18" rx="35.47" ry="31.55"/><path class="cls-8" d="M143.25,400.54c-.67,55.21,5.87,193.4,5.09,193.4h-11c-.77,0,4.53-137,3.81-193.4a1.06,1.06,0,0,1,2.09,0Z"/><path class="cls-8" d="M133.7,429.7l7.57,1.3-.7,2.9-7.32-2.32A1,1,0,0,1,133.7,429.7Z"/><path class="cls-8" d="M135.2,493.19l6.37,1.09-.71,2.9-6.16-2A1,1,0,0,1,135.2,493.19Z"/><path class="cls-8" d="M147.71,464.52l-5.21,3.74-1.57-2.53,5.67-3A1.06,1.06,0,0,1,147.71,464.52Z"/><path class="cls-8" d="M145.21,410.18l-1.08.78a1.31,1.31,0,0,1-1.87-.37l-.1-.16a1.3,1.3,0,0,1,.51-1.84l1.17-.62A1.3,1.3,0,0,1,145.21,410.18Z"/></g><path class="cls-6" d="M54.62,106.27V611.56H700V106.27Zm616.09,476H83.94V135.59H670.71Z"/><path class="cls-6" d="M82.12,135.21V581.85H375.51V135.21ZM216.6,557.42h-110V373.19H216.6Zm0-208.66h-110V159.64H216.6ZM351.08,557.42H241V373.19h110Zm0-208.66H241V159.64h110Z"/><path class="cls-6" d="M376.85,135.21V581.85H670.24V135.21ZM511.33,557.42h-110V373.19H511.33Zm0-208.66h-110V159.64H511.33ZM645.8,557.42h-110V373.19h110Zm0-208.66h-110V159.64h110Z"/><path class="cls-9" d="M744.86,458.26c16.43,37.45,34.61,36.26,50.9,38.47,20.66,2.8,19.55,4.12,24.68,9.87,18.55,20.8,15.15,65.48-2.73,88.17-43.14,54.76-238.13-7.7-249.44-60.51-2.74-12.8,54.38-2.81,101.36-58"/><path class="cls-10" d="M733.15,548.53c49.93-9.8,67.3-35.83,73.15-49.9C798.49,493,788.75,496,788.75,496c-.58,22-38.43,42.64-81.67,40.73s-56.2-42.21-56.2-42.21-6.12-1.07-15.29,4C641.33,515,664.05,562.08,733.15,548.53Z"/><path class="cls-10" d="M944.91,624.82c-5-51.7-43.78-77.58-52.94-86.55-36.49,0-87.28,102.87-60.81,157H955.64S949.92,676.53,944.91,624.82Z"/><path class="cls-10" d="M573.28,528.24c-6.6,3.68-29.44,10.15-34.25,13.86-14,10.77-97.29,153.12-97.29,153.12H535C531.46,651,541.86,588.26,573.28,528.24Z"/><path class="cls-11" d="M831.16,695.22c-2.78-9.44-14.52-52.88,60.81-157-26.19-25.64-64.64-35.82-85.67-39.64-5.85,14.07-23.22,40.1-73.15,49.9-69.1,13.55-91.82-33.57-97.56-50-1,.2-1.91.43-2.85.7-11.47,3.2-36.57,16.8-63.36,31.74C538,591,524.42,651,528,695.22H831.16Z"/><path class="cls-12" d="M615.08,306.27s-11.41,57.88.68,98S650.82,491,663.7,499.47s33.17,15,61.82,2.68,40.64-82,40.64-82,11.33-.78,13.68-15.65c1.28-8.12,1.17-22.89,7.45-29.92,2.66-3,.33-18.57-2-21.3-5.4-6.2-10.93-1.7-10.93-1.7s-17.54-34-15.75-38.75S654.9,242.06,615.08,306.27Z"/><path class="cls-13" d="M610.25,354.56s-14.94-43.48-9.11-53.33.57-19.24,21.73-31.68a120.14,120.14,0,0,1,45.67-16c14.1-1.88,12.46-4.69,44.4-.17,18,2.55,34.9,6.22,48,28.93s17.53,21.77,16,36.6-2.59,32.65-2.59,32.65-5.91,2-8,21.28c-2.7,25.44-11.23-25-25.55-50.64-9.87-17.68-5.34-22.36-27-27.11-18.1-4-89.56,2.85-97.17,14.71-6.69,10.44-3,32.12-6.4,44.76"/><path class="cls-14" d="M610.6,376.77a4,4,0,0,1-3.12-6.48c.39-.48,9.68-11.76,28.07-9.82a4,4,0,0,1-.84,8c-13.89-1.47-20.73,6.55-21,6.89A4,4,0,0,1,610.6,376.77Z"/><path class="cls-14" d="M680.29,363.59a4,4,0,0,1-2.08-7.41c.6-.37,15-8.83,36.86-3.11a4,4,0,1,1-2,7.74c-18.46-4.83-30.23,1.93-30.72,2.22A4,4,0,0,1,680.29,363.59Z"/><path class="cls-14" d="M664.13,437.46c-4.21,0-7.17-1-9-3.16-3.64-4.2-2.24-11.41.13-21.13,5.57-22.8,1.3-32.11,1.26-32.21a1.5,1.5,0,0,1,2.69-1.32c.2.4,4.85,10.18-1,34.24-2,8.26-3.47,15.36-.78,18.45,1.57,1.81,4.68,2.46,9.51,2a1.5,1.5,0,1,1,.29,3A30.21,30.21,0,0,1,664.13,437.46Z"/><path class="cls-14" d="M643.27,380.47a10.55,10.55,0,0,1,1.66.15,5.18,5.18,0,0,1,3.8,2.21,2.5,2.5,0,0,1-4.11,2.84c-1.78-.88-11.41.59-21.19,8.5a2.5,2.5,0,0,1-3.14-3.89C628.65,383.52,637.73,380.38,643.27,380.47Z"/><path class="cls-14" d="M702,375.14c7.07-1.67,14.65-1.77,18.73.78a2.5,2.5,0,0,1-2.65,4.24c-4.07-2.55-15.87-1.07-23.38,2.92a2.5,2.5,0,1,1-2.35-4.42A41.42,41.42,0,0,1,702,375.14Z"/><path class="cls-15" d="M627.56,476.53l-.31.58a3.39,3.39,0,0,0-.07-.76A1.48,1.48,0,0,1,627.56,476.53Zm-5,11.73.29-.2,0,0Zm-.56-9.38a2.27,2.27,0,0,0-.23-.77,4,4,0,0,1,.71.19C622.34,478.5,622.19,478.69,622,478.88Zm35.56,12.69c-.12.19-.23.35-.33.52a.36.36,0,0,1,0-.09l-.1-.14Z"/><path class="cls-14" d="M680.39,470.54A2.5,2.5,0,0,1,682,475.2c-.93.51-1.68,1-2.36,1.39-3.29,2-5.19,3-12.46,4a2.5,2.5,0,0,1-.66-5h0c6.52-.83,7.85-1.65,10.49-3.28.72-.44,1.53-.94,2.52-1.49A2.42,2.42,0,0,1,680.39,470.54Z"/></g></svg>