<svg xmlns="http://www.w3.org/2000/svg" viewBox="0 0 1089.64 757.8"><defs><style>.cls-1{fill:#f1f1f1;}.cls-2{fill:#454545;}.cls-3{fill:#919191;}.cls-4{fill:#828282;}.cls-5{fill:#a0a0a0;}.cls-6{fill:#727272;}.cls-7{fill:#636363;}.cls-8{fill:#b0b0b0;}.cls-9{fill:#545454;}.cls-10{fill:#2d2d2d;}.cls-11{fill:#fb6d47;}.cls-12{fill:#f0f0f0;}.cls-13{fill:#3b3b3b;}.cls-14{fill:#db866f;}.cls-15{fill:#cbc8c5;}.cls-16{fill:#eb7d60;}.cls-17{fill:#ec7f60;}.cls-18{fill:#e37e62;}.cls-19{fill:#ed8568;}.cls-20{fill:#e3866d;}.cls-21{fill:#e78165;}.cls-22{fill:#ea8063;}.cls-23{fill:#e68267;}.cls-24{fill:#e87e61;}.cls-25{fill:#e18268;}.cls-26{fill:#ec8164;}.cls-27{fill:#e77e61;}.cls-28{fill:#db836b;}.cls-29{fill:#e0876e;}.cls-30{fill:#e38065;}.cls-31{fill:#e5896f;}.cls-32{fill:#e48a71;}.cls-33{fill:#c34538;}.cls-34{fill:#c99;}.cls-35{fill:#ffd7e0;}.cls-36{fill:#ccc;}.cls-37{fill:#966;}.cls-38{fill:#bcbec0;}.cls-39{fill:#999;}.cls-40{fill:#669;}.cls-41{fill:#54508f;}.cls-42{fill:#f5a688;}.cls-43{fill:#099;}.cls-44{fill:#366;}.cls-45{fill:#ffccae;}.cls-46{fill:#333;}.cls-47{fill:#666;}.cls-48{fill:#f5b592;}</style></defs><g id="Layer_12" data-name="Layer 12"><path class="cls-1" d="M803.67,266.7h-.59a2.91,2.91,0,0,1-2-2.4,54.86,54.86,0,0,1-1-8.37c-.51-6.46-.84-12.93-1.33-19.39-.38-5-.78-10.11-1.08-15.17-.28-4.8-.62-9.6-.89-14.4-.17-3.1-.31-6.21-.47-9.31s-.32-6.27-.5-9.4c-.17-3-.31-5.95-.45-8.92-.17-3.43-.37-6.86-.53-10.29-.15-3-.32-6-.45-8.92-.15-3.17-.39-6.33-.53-9.5-.15-3.37-.43-6.73-.66-10.09s-.47-7-.71-10.48q-.25-3.72-.46-7.44c-.18-3.27-.33-6.53-.55-9.8-.11-1.79-.18-3.6-.2-5.39-.11-7-.37-13.94-.24-20.92,0-1.08.16-2.15.25-3.23a2.88,2.88,0,0,1,2.61-2.66c2.62-.56,5.26-1.09,7.9-1.55,4.55-.79,9.13-1.42,13.7-2a2.27,2.27,0,0,1,1.54.09c.31.39-.08.53-.27.74a2.65,2.65,0,0,0-1.48,2.74c.11,3.24.43,6.46.69,9.69.43,5.32,1,10.62,1.5,15.94.33,3.65.73,7.29,1.05,10.94q.52,6.21,1.09,12.42c.42,4.53.77,9.07,1.12,13.6s.7,9,1.05,13.5.71,9.14,1.1,13.7q.54,6.47,1.07,12.92c.29,3.52.6,7,.88,10.56.24,3.1.46,6.2.68,9.3.25,3.43.48,6.85.71,10.28.17,2.61.31,5.23.46,7.84.2,3.49.32,7,.55,10.48.1,1.54.16,3.08.21,4.61.17,5,.46,10,.66,15,.17,4,.3,8,.56,12a2.35,2.35,0,0,0,2.13,2.39,2.48,2.48,0,0,0,2.29-2.39c0-.68,0-1.37,0-2.06a5.94,5.94,0,0,0-.11-2.26,14.62,14.62,0,0,1-.08-2.29,6.26,6.26,0,0,0-.11-2.24,13.34,13.34,0,0,1-.09-2.28,5.83,5.83,0,0,0-.11-2.24,12.4,12.4,0,0,1-.08-2.28,6,6,0,0,0-.12-2.23,13.24,13.24,0,0,1-.08-2.09,5.19,5.19,0,0,0-.11-2,11.28,11.28,0,0,1-.08-2.09,5.19,5.19,0,0,0-.12-2,10.15,10.15,0,0,1-.08-1.91,6.09,6.09,0,0,0-.11-2.21,10.15,10.15,0,0,1-.08-1.91,5.35,5.35,0,0,0-.12-2,11.22,11.22,0,0,1-.08-2.09,5.28,5.28,0,0,0-.11-2,10.81,10.81,0,0,1-.09-1.88,3.27,3.27,0,0,0-.11-1.49,8.6,8.6,0,0,1-.08-1.68,3.93,3.93,0,0,0-.11-1.64,7,7,0,0,1-.08-1.51,3.94,3.94,0,0,0-.12-1.64,7.65,7.65,0,0,1-.08-1.51,4,4,0,0,0-.11-1.64,6.88,6.88,0,0,1-.09-1.5,3.93,3.93,0,0,0-.11-1.64,7.61,7.61,0,0,1-.08-1.51,3.9,3.9,0,0,0-.12-1.63,7.55,7.55,0,0,1-.08-1.5,3.24,3.24,0,0,0-.11-1.45,6.37,6.37,0,0,1-.08-1.31,3.34,3.34,0,0,0-.11-1.44,6.32,6.32,0,0,1-.09-1.3,2.86,2.86,0,0,0-.11-1.27,6.37,6.37,0,0,1-.08-1.31,3.47,3.47,0,0,0-.12-1.43,6.27,6.27,0,0,1-.08-1.3,2.8,2.8,0,0,0-.11-1.25,5.28,5.28,0,0,1-.08-1.12,3,3,0,0,0-.12-1.25,5.87,5.87,0,0,1-.08-1.11,2.74,2.74,0,0,0-.11-1.24,5.29,5.29,0,0,1-.09-1.12,2.74,2.74,0,0,0-.11-1.24,5.24,5.24,0,0,1-.08-1.12,3.05,3.05,0,0,0-.11-1.24,5.24,5.24,0,0,1-.09-1.12,2.75,2.75,0,0,0-.11-1.24,5.24,5.24,0,0,1-.09-1.12A2.75,2.75,0,0,0,828,178a5.19,5.19,0,0,1-.08-1.11,3.1,3.1,0,0,0-.11-1.25,5.2,5.2,0,0,1-.09-1.11,2.8,2.8,0,0,0-.11-1.25,5.15,5.15,0,0,1-.09-1.11,2.74,2.74,0,0,0-.11-1.24,5.28,5.28,0,0,1-.08-1.12,3.05,3.05,0,0,0-.11-1.24,5.29,5.29,0,0,1-.09-1.12,3,3,0,0,0-.11-1.26,6.08,6.08,0,0,1-.09-1.28,2.83,2.83,0,0,0-.11-1.26,5.28,5.28,0,0,1-.08-1.12,3.25,3.25,0,0,0-.12-1.42,5.33,5.33,0,0,1-.08-1.13,3,3,0,0,0-.11-1.25,6.23,6.23,0,0,1-.09-1.29,2.83,2.83,0,0,0-.11-1.26,5.24,5.24,0,0,1-.08-1.12,3.4,3.4,0,0,0-.11-1.42,4.75,4.75,0,0,1-.09-1.13,3,3,0,0,0-.11-1.25,6.23,6.23,0,0,1-.09-1.29,2.69,2.69,0,0,0-.11-1.26,6.22,6.22,0,0,1-.08-1.29,3,3,0,0,0-.11-1.26,4.75,4.75,0,0,1-.09-1.13,3.37,3.37,0,0,0-.11-1.41,4.78,4.78,0,0,1-.08-1.13,2.83,2.83,0,0,0-.12-1.26A6.13,6.13,0,0,1,825,140a2.8,2.8,0,0,0-.12-1.25,7,7,0,0,1-.08-1.29,2.83,2.83,0,0,0-.11-1.26,1.76,1.76,0,0,1,.05-1,.67.67,0,0,1,.35-.35c.59-.19,1.23,0,1.81-.24a7.55,7.55,0,0,1,1.5-.08,3.44,3.44,0,0,0,1.46-.12,7.41,7.41,0,0,1,1.49-.08,3.27,3.27,0,0,0,1.46-.12,9.39,9.39,0,0,1,1.67-.08,3.32,3.32,0,0,0,1.47-.11,7.41,7.41,0,0,1,1.49-.08,3.39,3.39,0,0,0,1.45-.11,5.87,5.87,0,0,1,1.32-.09,3.81,3.81,0,0,0,1.61-.11,6.37,6.37,0,0,1,1.31-.08,3,3,0,0,0,1.27-.11,6.27,6.27,0,0,1,1.3-.09,2.83,2.83,0,0,0,1.26-.11,6.27,6.27,0,0,1,1.3-.08,3.46,3.46,0,0,0,1.43-.11,4.75,4.75,0,0,1,1.13-.09,3.46,3.46,0,0,0,1.43-.11,4.74,4.74,0,0,1,1.13-.08,3.41,3.41,0,0,0,1.42-.12,5.33,5.33,0,0,1,1.13-.08,3.46,3.46,0,0,0,1.43-.11,4.75,4.75,0,0,1,1.13-.09,3.42,3.42,0,0,0,1.42-.11,5.28,5.28,0,0,1,1.12-.08,2.83,2.83,0,0,0,1.26-.12,6.22,6.22,0,0,1,1.29-.08,2.83,2.83,0,0,0,1.26-.12,6.27,6.27,0,0,1,1.3-.08,2.84,2.84,0,0,0,1.26-.11,6.23,6.23,0,0,1,1.29-.09,2.74,2.74,0,0,0,1.27-.11,6.27,6.27,0,0,1,1.3-.08,3.47,3.47,0,0,0,1.43-.12,6.37,6.37,0,0,1,1.31-.08,2.75,2.75,0,0,0,1.27-.12,8.06,8.06,0,0,1,1.47-.08,2.92,2.92,0,0,0,1.28-.11,7.26,7.26,0,0,1,1.47-.09,2.65,2.65,0,0,0,1.28-.11,7.25,7.25,0,0,1,1.47-.08,2.78,2.78,0,0,0,1.28-.12,8.06,8.06,0,0,1,1.47-.08,2.78,2.78,0,0,0,1.28-.11,6.37,6.37,0,0,1,1.31-.08,3.35,3.35,0,0,0,1.44-.12,7.41,7.41,0,0,1,1.49-.08,3.44,3.44,0,0,0,1.46-.12,7.41,7.41,0,0,1,1.49-.08,3.9,3.9,0,0,0,1.63-.11,5.41,5.41,0,0,1,1.33-.08,4.07,4.07,0,0,0,1.63-.12,7.51,7.51,0,0,1,1.5-.08,3.44,3.44,0,0,0,1.46-.12,7.51,7.51,0,0,1,1.5-.08,3.9,3.9,0,0,0,1.63-.11,6.93,6.93,0,0,1,1.51-.09,3.18,3.18,0,0,0,1.47-.12,9.87,9.87,0,0,1,1.88-.08,5.28,5.28,0,0,0,2-.11,10,10,0,0,1,1.89-.09,4.43,4.43,0,0,0,1.85-.11,10.08,10.08,0,0,1,1.9-.08,5.28,5.28,0,0,0,2-.12,10,10,0,0,1,1.9-.08,4.36,4.36,0,0,0,1.83-.11,8.91,8.91,0,0,1,1.71-.08,3.84,3.84,0,0,0,1.65-.12,8.7,8.7,0,0,1,1.69-.08,4.48,4.48,0,0,0,1.82-.11,7.41,7.41,0,0,1,1.49-.08,2.88,2.88,0,0,0,1.27-.1,5.15,5.15,0,0,1,1.11-.09,2.81,2.81,0,0,0,1.22-.1,2.23,2.23,0,0,1,1.06,0,2.82,2.82,0,0,1,1,.79l79.46,79.46a3.42,3.42,0,0,1,1.1,1.59c.51,3.85.95,7.71,1.43,11.57a2.57,2.57,0,0,0,.1,1.1,3.94,3.94,0,0,1,.08.77,2.63,2.63,0,0,0,.11,1,3.66,3.66,0,0,1,.09.75,2.36,2.36,0,0,0,.11,1,3.74,3.74,0,0,1,.08.75,2.53,2.53,0,0,0,.12,1,4.53,4.53,0,0,1,.08.74,2.77,2.77,0,0,0,.11,1,3.65,3.65,0,0,1,.09.74,2.41,2.41,0,0,0,.11,1,3.65,3.65,0,0,1,.08.74,2.58,2.58,0,0,0,.12,1,4.53,4.53,0,0,1,.08.74,2.58,2.58,0,0,0,.11,1,3.66,3.66,0,0,1,.09.75,2.42,2.42,0,0,0,.12,1,4,4,0,0,1,.08.77,3.43,3.43,0,0,0,.12,1.39,4.66,4.66,0,0,1,.08,1.12,3.12,3.12,0,0,0,.12,1.25,6.23,6.23,0,0,1,.09,1.29,2.79,2.79,0,0,0,.1,1.25,4.71,4.71,0,0,1,.09,1.12,2.88,2.88,0,0,0,.12,1.27,5.4,5.4,0,0,1,.07,1.33c0,.35,0,.69,0,1a3.07,3.07,0,0,1-2.87,2.41c-5.06.73-10.1,1.53-15.17,2.17-6.69.85-13.38,1.65-20.07,2.48a22,22,0,0,1-2.93.28,2.26,2.26,0,0,0-1.15.11,25.41,25.41,0,0,1-4,.47,2.33,2.33,0,0,0-1.14.13,57.54,57.54,0,0,1-5.72.66,2.33,2.33,0,0,0-1.14.12,26.52,26.52,0,0,1-4,.47,2.21,2.21,0,0,0-1.11.11,9,9,0,0,1-2.42.27,2.38,2.38,0,0,0-1.09.1,4.13,4.13,0,0,1-.93.09,2.53,2.53,0,0,0-1.06.11,5,5,0,0,1-1.09.09,2.33,2.33,0,0,0-1,.11,4.87,4.87,0,0,1-.93.08,2.52,2.52,0,0,0-1.05.11,4,4,0,0,1-.91.09,2.48,2.48,0,0,0-1,.11,4.87,4.87,0,0,1-.93.08,2.49,2.49,0,0,0-1,.12,5,5,0,0,1-1.09.08,2.48,2.48,0,0,0-1,.11,4.19,4.19,0,0,1-.93.09,2.31,2.31,0,0,0-1,.11,4.84,4.84,0,0,1-.92.08,2.55,2.55,0,0,0-1.06.12,4.87,4.87,0,0,1-.93.08,3,3,0,0,0-1.22.12,5.88,5.88,0,0,1-1.1.08,2.33,2.33,0,0,0-1.08.12,5.76,5.76,0,0,1-1.1.08,3.05,3.05,0,0,0-1.24.11,5.2,5.2,0,0,1-1.11.09A2.75,2.75,0,0,0,933,260a4.9,4.9,0,0,1-.94.08,2.89,2.89,0,0,0-1.24.12,5.14,5.14,0,0,1-1.11.08,2.9,2.9,0,0,0-1.24.11,5.06,5.06,0,0,1-1.1.09,2.47,2.47,0,0,0-1.08.11,5.05,5.05,0,0,1-1.1.08,3.07,3.07,0,0,0-1.24.11,5.06,5.06,0,0,1-1.1.09,2.47,2.47,0,0,0-1.08.11,5.06,5.06,0,0,1-1.1.09,2.74,2.74,0,0,0-1.24.11,5.19,5.19,0,0,1-1.11.08,2.9,2.9,0,0,0-1.24.11,3.7,3.7,0,0,1-.94.08,3.06,3.06,0,0,0-1.24.12,5.15,5.15,0,0,1-1.11.09,2.75,2.75,0,0,0-1.24.11,5.76,5.76,0,0,1-1.1.08,2.47,2.47,0,0,0-1.08.11,5.06,5.06,0,0,1-1.1.09,2.74,2.74,0,0,0-1.24.11,5.2,5.2,0,0,1-1.11.09,2.75,2.75,0,0,0-1.24.1,4.22,4.22,0,0,1-.94.09,3.07,3.07,0,0,0-1.24.11,5.15,5.15,0,0,1-1.11.09,2.74,2.74,0,0,0-1.24.11,5.2,5.2,0,0,1-1.11.09,2.74,2.74,0,0,0-1.24.11,5.93,5.93,0,0,1-1.11.08,2.48,2.48,0,0,0-1.08.11,5.06,5.06,0,0,1-1.1.09,2.74,2.74,0,0,0-1.24.11,4.62,4.62,0,0,1-1.11.08,2.89,2.89,0,0,0-1.24.12,5.93,5.93,0,0,1-1.11.08,2.42,2.42,0,0,0-1.07.11,5.2,5.2,0,0,1-1.11.09,2.74,2.74,0,0,0-1.24.11,4.66,4.66,0,0,1-1.12.08,3.12,3.12,0,0,0-1.25.12,6.23,6.23,0,0,1-1.29.09,2.69,2.69,0,0,0-1.26.11,6.27,6.27,0,0,1-1.3.08,3,3,0,0,0-1.26.11,5.61,5.61,0,0,1-1.29.09,2.87,2.87,0,0,0-1.27.11,5.22,5.22,0,0,1-1.31.08,4.21,4.21,0,0,0-1.62.12,5.33,5.33,0,0,1-1.32.08,4.07,4.07,0,0,0-1.63.12,7,7,0,0,1-1.51.08,4,4,0,0,0-1.64.12,7,7,0,0,1-1.52.08,4.53,4.53,0,0,0-1.83.12,10,10,0,0,1-1.89.08,5.32,5.32,0,0,0-2,.12,11.28,11.28,0,0,1-2.09.08,5.44,5.44,0,0,0-2.05.12,13.65,13.65,0,0,1-2.3.08,10,10,0,0,0-3,.12,17.41,17.41,0,0,1-2.7.08,9.56,9.56,0,0,0-3,.13c-1.35.08-2.7,0-4,0a35.74,35.74,0,0,0-4,.09c-1.54,0-3.08,0-4.62,0s-3.33,0-5,0c-.36.15-.78-.06-1.14.16h-.39c-.43-.2-.88-.05-1.32-.1H806.29A15.32,15.32,0,0,0,803.67,266.7Z"/><path class="cls-2" d="M822.54,266.54h3c.07,0,.09.07.06.11s0,.05-.06.05h-3c-.07,0-.09-.07-.07-.11S822.52,266.54,822.54,266.54Z"/><path class="cls-3" d="M809,266.54h2.75c.07,0,.09.07.07.11s0,.05-.07.05H809c-.07,0-.09-.07-.07-.11S809,266.54,809,266.54Z"/><path class="cls-4" d="M811.73,266.7v-.16h2.76c.06,0,.08.07.06.11a.1.1,0,0,1-.07.05Z"/><path class="cls-5" d="M809,266.54v.16h-2.75c-.07,0-.1-.08-.07-.11a.1.1,0,0,1,.07-.06Z"/><path class="cls-6" d="M814.48,266.7a.86.86,0,0,1,0-.16h2.75c.06,0,.08.07.06.11a.1.1,0,0,1-.07.05Z"/><path class="cls-7" d="M817.23,266.7a.86.86,0,0,1,0-.16H820c.06,0,.08.07.06.11s0,.05-.07.05Z"/><path class="cls-8" d="M806.23,266.53v.17h-2.56A6,6,0,0,1,806.23,266.53Z"/><path class="cls-9" d="M820,266.7c0-.05,0-.11,0-.16h2.55v.16Z"/><path class="cls-10" d="M825.49,266.7v-.16c.39,0,.84-.26,1.18.16Z"/><path class="cls-11" d="M833.15,75.49c2.53-.31,5.06-.56,7.6-.63.59-.22,1.23,0,1.83-.16l.69,0c.54-.2,1.13,0,1.67-.15l.72-.05c.6-.21,1.23.05,1.84-.15l.55,0c.58-.23,1.22,0,1.81-.16l.7,0c.6-.22,1.24,0,1.85-.16l.55,0c.65-.24,1.35.05,2-.17l.51,0c.53-.21,1.11,0,1.65-.16,3.44-.4,6.9-.62,10.36-.85.47.1.57.51.69.87,1.77,5.7,2.48,11.46.4,17.22A12.71,12.71,0,0,1,861.84,98a18.52,18.52,0,0,1-1.91.76,1.31,1.31,0,0,1-1.31,0,3.12,3.12,0,0,1-.42-1.59c-.19-1.72-.36-3.45-.66-5.16a2.26,2.26,0,0,0-3.36-1.8,2.08,2.08,0,0,0-1.06,2.06c.09,2,.45,3.91.67,5.86.45,4.06.83,8.13.9,12.23,0,.23,0,.46,0,.68a2.25,2.25,0,0,0,2.2,2.1,2.18,2.18,0,0,0,2.21-2.07,20.77,20.77,0,0,0,0-4,9.66,9.66,0,0,1,0-2.94c.2-.51.7-.54,1.13-.66a18.16,18.16,0,0,0,11.41-8.54,20.24,20.24,0,0,0,2.5-8.7,34.64,34.64,0,0,0-1.4-13,1,1,0,0,1,0-.94c5.44-.42,10.87-.82,16.31-1.26s10.8-.91,16.2-1.36l16.68-1.42c5.5-.47,11-1,16.49-1.34.53-.21,1.11,0,1.64-.16a17.87,17.87,0,0,1,3.27-.24c.54-.2,1.11,0,1.64-.15a18,18,0,0,1,3.28-.24c.53-.21,1.1,0,1.64-.15a17,17,0,0,1,3.27-.24c.53-.21,1.11,0,1.64-.16,4.76-.42,9.52-.8,14.29-1,.66-.22,1.36,0,2-.16l1.55-.08c.63,0,.73.6.92,1a23.65,23.65,0,0,1,1.91,6.88,24.46,24.46,0,0,1-.81,10.28,13,13,0,0,1-9.29,9,1.4,1.4,0,0,1-1.23,0,14.52,14.52,0,0,1-.6-3.26c-.24-1.42-.45-2.85-.74-4.26a4.52,4.52,0,0,0-.34-1.12,2.15,2.15,0,0,0-2.55-1.15,2.2,2.2,0,0,0-1.58,2.23,23.18,23.18,0,0,0,.4,2.61,115,115,0,0,1,1.68,15.48,10.22,10.22,0,0,0,.23,1.75,2.11,2.11,0,0,0,2.26,1.76,2,2,0,0,0,2-2,41.17,41.17,0,0,0-.37-6.84c.12-.5.57-.49.93-.57a18.25,18.25,0,0,0,12.23-9.07,21.72,21.72,0,0,0,2.37-8.54,29.38,29.38,0,0,0-1.65-13.3c-.13-.35-.35-.74.06-1.07,1-.08,1.92.08,2.87-.09l2.29,0a35.47,35.47,0,0,1,3.72-.09,3.22,3.22,0,0,0,1.07-.06,33.51,33.51,0,0,1,4.59-.11,2.6,2.6,0,0,1,2.28,2.24c1.13,5.58,2.26,11.17,3.35,16.76,1.17,6,2.34,12.09,3.45,18.15,1,5.44,1.88,10.91,2.81,16.37a2.82,2.82,0,0,1,0,.58c-.1,1.77-1.39,2.22-2.8,2.48-5.86,1.09-11.71,2.2-17.62,3-6.87.91-13.77,1.59-20.68,2.19q-9.48.83-19,1.68c-2.48.23-5,.39-7.43.62a4.3,4.3,0,0,1-1.85-.13l-1.18.06c-.39.16-.83,0-1.22.14l-1.14,0c-.39.16-.83,0-1.23.15l-1.52,0c-.59.18-1.22-.07-1.8.15l-1.74,0c-.53.17-1.09-.06-1.62.14l-1.72.05c-.59.19-1.22-.06-1.81.15l-1.92.05c-.66.18-1.35-.06-2,.15l-1.92,0c-.6.17-1.23-.06-1.82.14L911,129c-.66.19-1.35-.07-2,.15l-1.92.05c-.46.17-1-.05-1.43.14l-1.51.06c-.53.18-1.1-.07-1.62.14l-1.53.06c-.46.16-1-.06-1.43.14l-1.52.05c-.52.18-1.09-.07-1.61.15l-1.34.05c-.52.17-1.09-.07-1.61.14l-1.53.06c-.47.16-1-.06-1.43.14l-1.52.05c-.46.17-1-.06-1.41.15l-1.34.05c-.4.15-.84,0-1.24.14l-1.51.06c-.4.15-.84,0-1.24.14l-1.51,0c-.41.15-.84,0-1.24.14l-1.52.06c-.4.15-.83,0-1.23.14l-1.52.06c-.4.15-.84,0-1.23.14l-1.32,0c-.47.17-1,0-1.43.14l-1.32.06c-.4.15-.84-.05-1.23.14l-1.33.06c-.4.15-.83,0-1.23.14l-1.32,0c-.4.16-.84,0-1.23.14l-1.33.06c-.39.15-.83-.05-1.22.14l-1.14.05c-.45.18-1-.06-1.41.15l-1.14.05c-.46.17-1-.06-1.41.15l-1.15,0c-.45.17-1-.07-1.41.14l-1.14.05c-.46.17-1-.06-1.42.15l-1.14.05c-.46.17-1-.06-1.42.14l-1.33.06c-.4.15-.83,0-1.23.14l-1.32,0c-.4.16-.84,0-1.24.15l-1.32.05c-.52.18-1.09-.07-1.61.15l-1.34,0c-.46.16-1-.06-1.43.14l-1.52,0c-.46.16-1,0-1.43.14l-1.71.06c-.47.16-1-.05-1.43.14l-1.52.05c-.46.17-1-.05-1.43.15l-1.52,0c-.59.18-1.22-.06-1.82.15l-.2.05c-.5,0-.41-.44-.43-.72-.36-4.6-.77-9.19-1.2-13.78-.49-5.18-1-10.35-1.49-15.53s-1-10.41-1.49-15.63c-.25-3-.43-6.06-.71-9.09a2.66,2.66,0,0,0-1.59-2.4c-.24-.15-.47-.3-.5-.61.21-.28.55-.07.79-.23l.37,0c.45-.22.95,0,1.4-.16l.34,0c.46-.21,1,.05,1.43-.16l.31,0c.41-.2.87,0,1.27-.17l.48,0c.41-.19.87,0,1.29-.16a28,28,0,0,1,4.47-.43c.46-.21,1,0,1.42-.16l.7,0C832.16,75.44,832.68,75.67,833.15,75.49Z"/><path class="cls-12" d="M935.54,127.52c2-.19,3.9-.38,5.85-.55q8.68-.78,17.39-1.53c4.59-.4,9.19-.79,13.78-1.23q12.3-1.17,24.46-3.42c1.64-.31,3.27-.67,4.91-.91a3.18,3.18,0,0,0,3-2.19c1.74,11.38,3.17,22.8,4.7,34.2,1.09,8.1,2,16.22,3,24.33s2,16,3,24c.37,2.88.68,5.78,1,8.66-.35-.39-.67-.79-1-1.16l-79.27-79.28C936.08,128.17,935.82,127.84,935.54,127.52Z"/><path class="cls-13" d="M817.77,77.52a2.69,2.69,0,0,1,2.08,2.62c.41,5.42.84,10.83,1.34,16.24.59,6.35,1.27,12.69,1.88,19,.44,4.66.83,9.32,1.25,14,.16,1.88.34,3.77.51,5.65,0,.38.07.77.1,1.15s0,.86.15,1.27l0,1.28c.15.41,0,.86.14,1.26l.06,1.3c.15.4,0,.84.14,1.25l0,1.11c.17.46,0,1,.15,1.43l.05,1.12c.15.41,0,.87.14,1.28l.06,1.28c.15.41,0,.85.14,1.26l.05,1.29c.15.41,0,.85.14,1.25l0,1.11c.18.47,0,1,.15,1.44l0,1.12c.16.41,0,.86.15,1.26l.05,1.29c.15.41,0,.85.14,1.26l0,1.1c.18.46,0,1,.15,1.43l.05,1.12c.16.42,0,.87.15,1.28l0,1.28c.15.41,0,.85.14,1.25l.05,1.11c.16.41,0,.85.15,1.26l0,1.1c.16.4,0,.85.15,1.25l0,1.11c.16.4,0,.84.14,1.24l.06,1.11c.15.41,0,.85.14,1.25l0,1.11c.16.4,0,.84.15,1.24l.05,1.12c.16.4,0,.84.14,1.23l.06,1.13c.15.4,0,.84.14,1.23l.06,1.13c.15.4,0,.84.14,1.23l0,1.13c.15.4,0,.84.14,1.24l.06,1.12c.15.4,0,.85.14,1.25l.05,1.1c.16.41,0,.86.14,1.27l.06,1.29c.16.47,0,1,.14,1.44l.06,1.31c.14.41,0,.86.14,1.27l0,1.29c.17.47,0,1,.14,1.44l.06,1.31c.16.47,0,1,.14,1.45l0,1.5c.18.54,0,1.11.15,1.65l0,1.49c.17.54,0,1.11.14,1.65l.06,1.5c.17.54-.06,1.11.14,1.65l0,1.49c.17.54,0,1.12.15,1.66l.05,1.49c.17.54-.05,1.12.14,1.66l.06,1.68c.16.48,0,1,.14,1.47l.05,1.87c.18.67-.06,1.38.15,2.05l0,2.08c.18.67-.06,1.37.14,2l.06,1.9c.18.73-.07,1.49.14,2.22l.05,1.9c.18.68-.06,1.39.15,2.06l0,2.07c.18.68-.06,1.38.14,2.05l.06,2.08c.18.74-.07,1.51.14,2.25l0,2.27c.18.74-.06,1.51.15,2.25l0,2.27c.18.74-.07,1.51.14,2.25l.06,2.27c.18.74-.07,1.5.14,2.24,0,.72,0,1.44,0,2.15a2.73,2.73,0,0,1-2.61,2.64,2.57,2.57,0,0,1-2.49-2.62c-.6-13-1.15-26.1-1.82-39.15-.61-11.9-1.45-23.78-2.45-35.65-.85-10-1.63-20-2.44-30.05q-1.34-16.4-2.68-32.78c-.91-11.19-2.11-22.35-3.13-33.53-.36-3.91-.62-7.83-.9-11.74a2.57,2.57,0,0,1,1.85-3A2.16,2.16,0,0,1,817.77,77.52Z"/><path class="cls-1" d="M921.22,187c-.15-1.49-.29-3-.44-4.47-.15-.33,0-.71-.15-1l-.25-2.69c-.15-.33,0-.71-.14-1l0-.94c-.17-.46,0-1-.15-1.43l0-1.12c-.17-.47,0-1-.14-1.43l-.06-1.13c-.17-.46.06-1-.14-1.42l0-.94c-.16-.39,0-.83-.15-1.23l-.05-.93c-.15-.33,0-.7-.15-1l0-.75c-.16-.33,0-.71-.15-1l-.77-6c-.36-.12-.47.08-.6.21A215.42,215.42,0,0,0,901.16,177c-.62.79-1.22,1.6-1.78,2.44a3,3,0,0,1-1.57,1.24,2.72,2.72,0,0,1-1.17,0,2.57,2.57,0,0,1-1.42-4.22c1.85-2.58,3.88-5,5.85-7.51.81-1,1.71-2,2.59-2.9,2.23-2.44,4.44-4.89,6.71-7.29,1.39-1.47,2.89-2.84,4.31-4.29,1-1,2-2.15,3-3.21a2.81,2.81,0,0,1,3.27-.83,2.87,2.87,0,0,1,1.66,2.55c.44,3.51,1,7,1.5,10.5.1.67.18,1.35.27,2,.17.4,0,.84.15,1.23l.05.94c.14.34,0,.72.14,1.06l.06,1.1c.13.35,0,.73.14,1.07l.05,1.29c.15.4,0,.84.14,1.24l.06,1.11c.15.42,0,.87.14,1.28l.06,1.28c.14.33,0,.71.14,1l.06.94c.14.33,0,.7.14,1a10.69,10.69,0,0,0,.24,2.71c.15.34,0,.73.15,1.07l0,.9c.15.32,0,.7.15,1l0,.74c.16.34,0,.72.15,1.05a14.79,14.79,0,0,0,.25,2.89c.16.39,0,.83.15,1.23l0,.93c.17.4,0,.85.15,1.25l.06,1.11c.14.41,0,.86.14,1.27l.05,1.28c.17.47-.05,1,.14,1.44l0,1.12c.17.47,0,1,.15,1.45l.06,1.3c.14.41,0,.86.14,1.27l0,1.28c.17.47,0,1,.14,1.44l.05,1.12c.17.47,0,1,.15,1.45l.06,1.3c.14.41,0,.86.14,1.26l0,1.3c.17.46,0,1,.14,1.43l.05,1.12c.17.47,0,1,.15,1.44l.06,1.31c.14.41,0,.86.13,1.27l.06,1.29c.17.46-.06,1,.14,1.43l0,1.12c.17.47,0,1,.15,1.44a1.38,1.38,0,0,0,0,.2c0,1.39,0,1.39,1.43,1.27.34-.14.71,0,1-.14l1.12-.05c.4-.16.84,0,1.24-.15l1.12,0c.4-.16.84,0,1.24-.14l1.12-.06c.4-.15.84,0,1.25-.14l1.11-.05c.46-.17,1,.05,1.42-.15l1.13,0c.47-.17,1,0,1.44-.15l1.12-.05c.46-.17,1,.05,1.44-.14l1.11-.05c.47-.17,1,.05,1.45-.15l1.3-.05a3.17,3.17,0,0,1,1.37,0,2.8,2.8,0,0,1,1.92,2.92c-.25,1.33-1.25,2.07-3.1,2.26-.41.15-.85,0-1.26.14l-1.3.06c-.4.15-.85,0-1.26.14l-1.29,0c-.41.15-.86,0-1.26.14l-1.3.06c-.41.15-.86,0-1.27.14l-1.28.05c-.41.16-.86,0-1.27.15l-1.29,0c-.4.16-.84,0-1.24.14l-1.11.06c-.35.13-.73,0-1.08.14l-1.09.05c-.4.16-.85,0-1.25.15l-1.11.05c-.39.16-.83,0-1.23.15l-1.12,0c-.35.13-.73,0-1.07.14l-1.1,0c-.4.16-.84,0-1.24.15l-1.11.05c-.35.14-.73,0-1.07.14l-1.1.06c-.34.13-.73,0-1.07.14l-1.09,0c-.4.16-.84,0-1.23.15l-.93.05c-.4.16-.85,0-1.25.14l-1.11.06c-.34.13-.72,0-1.07.14l-1.09,0c-.4.16-.85,0-1.25.15l-1.11.05c-.46.17-1-.06-1.43.14l-1.12.06c-.41.15-.86,0-1.27.14l-1.29,0c-.41.15-.85,0-1.25.14l-1.11.06c-.46.17-1-.05-1.43.14l-1.12.05a3,3,0,0,1-1.37,0,2.32,2.32,0,0,1-2-2,2.57,2.57,0,0,1,0-1.17c.42-1.52,1.63-1.87,3-2,.47-.17,1,.05,1.45-.15l1.31,0c.41-.15.86,0,1.26-.14l1.29-.06c.47-.16,1,.06,1.43-.14l1.13-.05c.47-.17,1,.05,1.44-.15l1.31,0c.41-.15.85,0,1.26-.14l1.1-.06c.34-.13.73,0,1.07-.14l1.09-.05c.4-.16.84,0,1.23-.15l.93-.05c.4-.16.85,0,1.25-.14l1.11-.06c.34-.13.72,0,1.06-.14l1.1,0c.35-.14.73,0,1.08-.14,1.4,0,1.16,0,1-1.21-.15-.41,0-.86-.14-1.26l0-1.29c-.17-.47,0-1-.15-1.44l-.05-1.12c-.17-.47.05-1-.14-1.45l-.06-1.3c-.15-.41,0-.86-.14-1.27l-.05-1.29c-.17-.46.05-1-.15-1.43l0-1.12c-.17-.47,0-1-.14-1.45l-.06-1.3c-.15-.41,0-.86-.14-1.27l0-1.29c-.17-.46,0-1-.15-1.43l0-1.12c-.17-.47,0-1-.14-1.45l-.06-1.31c-.14-.41,0-.85-.14-1.26l0-1.29c-.17-.47,0-1-.15-1.43l-.05-1.12c-.17-.48.05-1-.14-1.45l0-1.11c-.18-.46,0-1-.15-1.43l0-1.13c-.16-.4,0-.84-.14-1.24l-.06-1.11c-.15-.33,0-.71-.14-1l0-.74C921.22,187.74,921.39,187.37,921.22,187Z"/><path class="cls-13" d="M812.51,263a2.45,2.45,0,0,1-2.38,2.7,2.61,2.61,0,0,1-2.71-2.73c-.74-10.39-1.45-20.77-2.22-31.16-.86-11.65-1.79-23.31-2.66-35-.64-8.52-1.23-17-1.84-25.57-.26-3.63-.54-7.25-.77-10.88-.11-1.79.79-2.95,2.29-3.05s2.64,1,2.77,2.79c.3,4.14.55,8.3.85,12.44q.74,10.33,1.5,20.67.7,9.6,1.44,19.2c.56,7.35,1.14,14.69,1.7,22q.64,8.58,1.24,17.15C812,255.36,812.24,259.05,812.51,263Z"/><path class="cls-13" d="M816.44,147.62a2.55,2.55,0,0,1-2.4,2.68,2.6,2.6,0,0,1-2.68-2.54c-.84-10.08-1.74-20.16-2.51-30.24-.48-6.3-.87-12.61-1.44-18.9q-.69-7.68-1.7-15.32a2.57,2.57,0,0,1,4.77-1.79,5.62,5.62,0,0,1,.42,2.1c1.29,10.17,2.12,20.38,2.83,30.6.65,9.34,1.43,18.67,2.27,28C816.16,144,816.29,145.72,816.44,147.62Z"/><path class="cls-13" d="M823.13,261.18v2.06a2.53,2.53,0,0,1-2.34,2.66,2.43,2.43,0,0,1-2.68-2.39c-.19-2.34-.29-4.7-.43-7.05q-.7-11.67-1.42-23.33-.64-10.49-1.3-21c-.13-2.09,1.14-3.36,3.06-3a2.47,2.47,0,0,1,2,2.47q.39,5.82.74,11.66c.34,5.65.67,11.31,1,17q.64,10.48,1.32,21Z"/><path class="cls-13" d="M804.64,103.56a2.57,2.57,0,0,1-2.51,2.57,2.52,2.52,0,0,1-2.59-2.6q-.66-9.09-1.33-18.19c0-.42-.05-.85-.05-1.27a2.5,2.5,0,0,1,2.15-2.52,2.54,2.54,0,0,1,2.81,1.9,13.63,13.63,0,0,1,.25,2.63C803.8,91.82,804.2,97.56,804.64,103.56Z"/><path class="cls-12" d="M833.26,266.32a36.34,36.34,0,0,1-5.22.15,20.42,20.42,0,0,1,4.06-.16C832.48,266.29,832.88,266.32,833.26,266.32Z"/><path class="cls-12" d="M841.91,266.12a22.73,22.73,0,0,1-4,.16A19.53,19.53,0,0,1,841.91,266.12Z"/><path class="cls-12" d="M854.68,265.73a13,13,0,0,1-3,.15A11.13,11.13,0,0,1,854.68,265.73Z"/><path class="cls-12" d="M849,265.93a14,14,0,0,1-3,.15A10.35,10.35,0,0,1,849,265.93Z"/><path class="cls-14" d="M817.77,77.52l-1.1,0,.39-.36a1.69,1.69,0,0,1,1.15-.15C818.28,77.42,817.44,76.91,817.77,77.52Z"/><path class="cls-12" d="M832.74,247.73a7.4,7.4,0,0,1-.14-2.25A5.88,5.88,0,0,1,832.74,247.73Z"/><path class="cls-12" d="M832.15,235.32a7.53,7.53,0,0,1-.14-2.22A5.73,5.73,0,0,1,832.15,235.32Z"/><path class="cls-12" d="M833.33,261.28a7.67,7.67,0,0,1-.14-2.24A6,6,0,0,1,833.33,261.28Z"/><path class="cls-12" d="M833.13,256.77a8.1,8.1,0,0,1-.14-2.25A5.88,5.88,0,0,1,833.13,256.77Z"/><path class="cls-12" d="M832.94,252.25a7.74,7.74,0,0,1-.15-2.25A5.89,5.89,0,0,1,832.94,252.25Z"/><path class="cls-12" d="M832.54,243.4a6.71,6.71,0,0,1-.14-2.05C832.74,242,832.5,242.72,832.54,243.4Z"/><path class="cls-12" d="M832.35,239.28a6.2,6.2,0,0,1-.15-2.06C832.54,237.89,832.3,238.6,832.35,239.28Z"/><path class="cls-12" d="M832,231.2a6.58,6.58,0,0,1-.14-2A4.8,4.8,0,0,1,832,231.2Z"/><path class="cls-12" d="M916.63,128.71a5.93,5.93,0,0,1,2-.15A4.88,4.88,0,0,1,916.63,128.71Z"/><path class="cls-12" d="M909,129.1a5.93,5.93,0,0,1,2-.15A4.71,4.71,0,0,1,909,129.1Z"/><path class="cls-12" d="M859,265.53a6,6,0,0,1-2.07.16C857.61,265.34,858.32,265.6,859,265.53Z"/><path class="cls-12" d="M863.12,265.34a6.78,6.78,0,0,1-2.06.15C861.73,265.15,862.44,265.39,863.12,265.34Z"/><path class="cls-12" d="M831.76,227.09a6.42,6.42,0,0,1-.15-2.05C832,225.7,831.71,226.4,831.76,227.09Z"/><path class="cls-12" d="M927.45,128.12a4.56,4.56,0,0,1,1.8-.15C928.67,128.29,928.05,128.08,927.45,128.12Z"/><path class="cls-12" d="M920.56,128.51a4.81,4.81,0,0,1,1.81-.15C921.79,128.69,921.16,128.47,920.56,128.51Z"/><path class="cls-12" d="M912.89,128.9a4.66,4.66,0,0,1,1.82-.14C914.12,129.08,913.49,128.86,912.89,128.9Z"/><path class="cls-12" d="M825,135a4.68,4.68,0,0,1,1.82-.15C826.27,135.17,825.64,135,825,135Z"/><path class="cls-12" d="M866.86,265.15a5.12,5.12,0,0,1-1.87.14C865.59,265,866.23,265.19,866.86,265.15Z"/><path class="cls-12" d="M830.58,207.43a4.4,4.4,0,0,1-.15-1.65C830.76,206.3,830.54,206.88,830.58,207.43Z"/><path class="cls-12" d="M924.09,128.31a3.87,3.87,0,0,1,1.62-.14C925.2,128.49,924.63,128.28,924.09,128.31Z"/><path class="cls-12" d="M902.48,129.49a3.85,3.85,0,0,1,1.62-.14C903.58,129.67,903,129.45,902.48,129.49Z"/><path class="cls-12" d="M896.39,129.89a3.82,3.82,0,0,1,1.61-.15C897.49,130.06,896.93,129.84,896.39,129.89Z"/><path class="cls-12" d="M893.44,130.08a3.81,3.81,0,0,1,1.61-.14C894.54,130.26,894,130,893.44,130.08Z"/><path class="cls-12" d="M830.77,210.57a4.37,4.37,0,0,1-.14-1.65C831,209.45,830.74,210,830.77,210.57Z"/><path class="cls-12" d="M831.36,220a4.24,4.24,0,0,1-.14-1.66C831.55,218.88,831.32,219.46,831.36,220Z"/><path class="cls-12" d="M840.18,134a3.66,3.66,0,0,1,1.61-.15C841.28,134.19,840.72,134,840.18,134Z"/><path class="cls-12" d="M873.12,264.76a4.55,4.55,0,0,1-1.64.14C872,264.58,872.57,264.79,873.12,264.76Z"/><path class="cls-12" d="M831.17,216.87a4.23,4.23,0,0,1-.15-1.66C831.35,215.74,831.13,216.31,831.17,216.87Z"/><path class="cls-12" d="M831,213.72a4.19,4.19,0,0,1-.14-1.65C831.15,212.59,830.93,213.16,831,213.72Z"/><path class="cls-12" d="M876.11,264.56a4.35,4.35,0,0,1-1.68.15C875,264.38,875.55,264.6,876.11,264.56Z"/><path class="cls-12" d="M870,265a4.19,4.19,0,0,1-1.65.14C868.86,264.78,869.44,265,870,265Z"/><path class="cls-12" d="M825.67,145.1a3.31,3.31,0,0,1-.15-1.43C825.83,144.12,825.63,144.62,825.67,145.1Z"/><path class="cls-12" d="M834.46,134.4a3.16,3.16,0,0,1,1.43-.14C835.44,134.57,834.94,134.37,834.46,134.4Z"/><path class="cls-12" d="M927.67,201.53a3.25,3.25,0,0,1-.15-1.45C927.84,200.53,927.64,201,927.67,201.53Z"/><path class="cls-12" d="M923.38,214.16a3.32,3.32,0,0,1,.15,1.43C923.22,215.14,923.42,214.64,923.38,214.16Z"/><path class="cls-12" d="M826.45,155.13a3.35,3.35,0,0,1-.15-1.44C826.62,154.14,826.42,154.65,826.45,155.13Z"/><path class="cls-12" d="M928.65,214.68a3.48,3.48,0,0,1-.14-1.43C928.82,213.7,928.62,214.2,928.65,214.68Z"/><path class="cls-12" d="M927.47,199a3.51,3.51,0,0,1-.14-1.44C927.64,198,927.44,198.48,927.47,199Z"/><path class="cls-12" d="M848.23,133.42a3,3,0,0,1,1.42-.14C849.21,133.59,848.71,133.39,848.23,133.42Z"/><path class="cls-12" d="M837.41,134.21a2.9,2.9,0,0,1,1.43-.14C838.39,134.37,837.89,134.18,837.41,134.21Z"/><path class="cls-12" d="M827,162.59a3.31,3.31,0,0,1-.15-1.43C827.21,161.61,827,162.11,827,162.59Z"/><path class="cls-12" d="M831.32,134.6a3,3,0,0,1,1.43-.14C832.3,134.76,831.8,134.57,831.32,134.6Z"/><path class="cls-12" d="M951.86,225h-1.37A1.37,1.37,0,0,1,951.86,225Z"/><path class="cls-12" d="M830.38,204.28a3.39,3.39,0,0,1-.14-1.45C830.55,203.29,830.35,203.8,830.38,204.28Z"/><path class="cls-12" d="M850.79,133.23a3,3,0,0,1,1.42-.15C851.76,133.39,851.27,133.19,850.79,133.23Z"/><path class="cls-12" d="M929.44,225.1a3.34,3.34,0,0,1-.15-1.44C929.61,224.12,929.41,224.62,929.44,225.1Z"/><path class="cls-12" d="M924,222a3.35,3.35,0,0,1,.15,1.44C923.81,223,924,222.5,924,222Z"/><path class="cls-12" d="M922.6,203.73a3.39,3.39,0,0,1,.14,1.45C922.43,204.72,922.63,204.21,922.6,203.73Z"/><path class="cls-12" d="M928.06,206.82a3.51,3.51,0,0,1-.14-1.44C928.23,205.84,928,206.34,928.06,206.82Z"/><path class="cls-12" d="M853.35,133a3,3,0,0,1,1.41-.14C854.32,133.19,853.82,133,853.35,133Z"/><path class="cls-12" d="M949.19,225.05a3.25,3.25,0,0,1-1.45.15C948.2,224.88,948.7,225.08,949.19,225.05Z"/><path class="cls-12" d="M855.91,132.84a2.82,2.82,0,0,1,1.41-.15C856.88,133,856.38,132.8,855.91,132.84Z"/><path class="cls-12" d="M946.63,225.25a3.36,3.36,0,0,1-1.44.14C945.64,225.08,946.14,225.28,946.63,225.25Z"/><path class="cls-12" d="M944.07,225.44a3.35,3.35,0,0,1-1.44.15C943.08,225.28,943.59,225.48,944.07,225.44Z"/><path class="cls-12" d="M941.5,225.64a3.42,3.42,0,0,1-1.42.15C940.53,225.48,941,225.67,941.5,225.64Z"/><path class="cls-12" d="M858.46,132.64a3,3,0,0,1,1.41-.15C859.43,132.8,858.93,132.6,858.46,132.64Z"/><path class="cls-12" d="M907.11,228.59a3.29,3.29,0,0,1-1.43.14C906.13,228.43,906.63,228.62,907.11,228.59Z"/><path class="cls-12" d="M901.82,229a3.25,3.25,0,0,1-1.45.15C900.83,228.82,901.34,229,901.82,229Z"/><path class="cls-12" d="M928.26,209.39a3.4,3.4,0,0,1-.15-1.45C928.43,208.39,928.23,208.9,928.26,209.39Z"/><path class="cls-12" d="M923.78,219.45a3.39,3.39,0,0,1,.14,1.45C923.61,220.45,923.81,219.94,923.78,219.45Z"/><path class="cls-12" d="M909.35,233.66a3.3,3.3,0,0,1,1.43-.14C910.33,233.83,909.83,233.63,909.35,233.66Z"/><path class="cls-12" d="M901.88,234.25a3.16,3.16,0,0,1,1.43-.14C902.86,234.42,902.36,234.22,901.88,234.25Z"/><path class="cls-12" d="M899.39,234.3h1.37A1.32,1.32,0,0,1,899.39,234.3Z"/><path class="cls-12" d="M1019.88,236.78a3.26,3.26,0,0,1,.15,1.42C1019.72,237.75,1019.92,237.26,1019.88,236.78Z"/><path class="cls-12" d="M929.24,222.54a3.48,3.48,0,0,1-.14-1.43C929.41,221.56,929.21,222.06,929.24,222.54Z"/><path class="cls-12" d="M871.22,131.65a3,3,0,0,1,1.43-.14C872.2,131.82,871.7,131.62,871.22,131.65Z"/><path class="cls-12" d="M922,195.87a3.39,3.39,0,0,1,.14,1.45C921.84,196.86,922,196.35,922,195.87Z"/><path class="cls-12" d="M920,175.44a3.31,3.31,0,0,1,.15,1.43C919.88,176.42,920.07,175.92,920,175.44Z"/><path class="cls-12" d="M829.79,196.21a3.35,3.35,0,0,1-.14-1.44C830,195.22,829.76,195.73,829.79,196.21Z"/><path class="cls-12" d="M919.85,172.89a3.45,3.45,0,0,1,.14,1.43C919.68,173.87,919.88,173.37,919.85,172.89Z"/><path class="cls-12" d="M828.37,134.8a3,3,0,0,1,1.43-.15C829.35,135,828.85,134.77,828.37,134.8Z"/><path class="cls-12" d="M922.79,206.3a3.31,3.31,0,0,1,.15,1.43C922.63,207.28,922.83,206.78,922.79,206.3Z"/><path class="cls-12" d="M922.2,198.44a3.31,3.31,0,0,1,.15,1.43C922,199.42,922.24,198.92,922.2,198.44Z"/><path class="cls-12" d="M887.55,130.48a3.06,3.06,0,0,1,1.41-.15C888.52,130.64,888,130.44,887.55,130.48Z"/><path class="cls-12" d="M890.48,130.28a2.9,2.9,0,0,1,1.43-.14C891.46,130.44,891,130.25,890.48,130.28Z"/><path class="cls-12" d="M899.52,129.69a2.9,2.9,0,0,1,1.43-.14C900.5,129.85,900,129.66,899.52,129.69Z"/><path class="cls-12" d="M905.61,129.29a3,3,0,0,1,1.43-.14C906.59,129.46,906.09,129.26,905.61,129.29Z"/><path class="cls-12" d="M921.81,193.33a3.47,3.47,0,0,1,.15,1.43C921.64,194.31,921.84,193.81,921.81,193.33Z"/><path class="cls-12" d="M919.65,170.34a3.41,3.41,0,0,1,.14,1.42C919.48,171.32,919.68,170.82,919.65,170.34Z"/><path class="cls-12" d="M831.56,223.17a3.5,3.5,0,0,1-.14-1.47C831.73,222.16,831.53,222.68,831.56,223.17Z"/><path class="cls-12" d="M923.19,211.59a3.39,3.39,0,0,1,.14,1.45C923,212.58,923.22,212.08,923.19,211.59Z"/><path class="cls-12" d="M830.18,201.52a3.53,3.53,0,0,1-.14-1.44C830.35,200.53,830.15,201,830.18,201.52Z"/><path class="cls-12" d="M928.85,217.24a3.34,3.34,0,0,1-.15-1.44C929,216.26,928.82,216.76,928.85,217.24Z"/><path class="cls-12" d="M909.68,228.39a3.19,3.19,0,0,1-1.44.15C908.69,228.23,909.2,228.43,909.68,228.39Z"/><path class="cls-12" d="M829.4,191.11a2.43,2.43,0,0,1-.14-1.25C829.55,190.25,829.38,190.69,829.4,191.11Z"/><path class="cls-12" d="M926.89,191.68a2.58,2.58,0,0,1-.15-1.23C927,190.83,926.86,191.26,926.89,191.68Z"/><path class="cls-12" d="M921.62,191a2.75,2.75,0,0,1,.14,1.24C921.47,191.82,921.64,191.38,921.62,191Z"/><path class="cls-12" d="M829.59,193.48a2.62,2.62,0,0,1-.14-1.27C829.75,192.61,829.57,193.06,829.59,193.48Z"/><path class="cls-12" d="M927.08,193.86a2.54,2.54,0,0,1-.15-1.25C927.23,193,927.06,193.44,927.08,193.86Z"/><path class="cls-12" d="M927.28,196.24a2.51,2.51,0,0,1-.14-1.27C927.43,195.36,927.25,195.81,927.28,196.24Z"/><path class="cls-12" d="M830,198.79a2.62,2.62,0,0,1-.14-1.27C830.14,197.92,830,198.36,830,198.79Z"/><path class="cls-12" d="M922.4,201.16a2.59,2.59,0,0,1,.14,1.26C922.25,202,922.43,201.58,922.4,201.16Z"/><path class="cls-12" d="M927.87,204.1a2.51,2.51,0,0,1-.14-1.27C928,203.22,927.84,203.67,927.87,204.1Z"/><path class="cls-12" d="M923,209a2.62,2.62,0,0,1,.14,1.27C922.84,209.89,923,209.45,923,209Z"/><path class="cls-12" d="M928.46,212a2.46,2.46,0,0,1-.14-1.26C928.61,211.09,928.43,211.53,928.46,212Z"/><path class="cls-12" d="M916.15,261.22a2.57,2.57,0,0,1-1.23.14C915.3,261.07,915.74,261.24,916.15,261.22Z"/><path class="cls-12" d="M923.58,216.88a2.62,2.62,0,0,1,.14,1.27C923.43,217.75,923.61,217.31,923.58,216.88Z"/><path class="cls-12" d="M929,219.82a2.61,2.61,0,0,1-.13-1.27C929.2,219,929,219.39,929,219.82Z"/><path class="cls-12" d="M924.17,224.75a2.57,2.57,0,0,1,.14,1.26C924,225.62,924.2,225.17,924.17,224.75Z"/><path class="cls-12" d="M933.14,127.72a2.32,2.32,0,0,1,1.22-.14C934,127.87,933.55,127.7,933.14,127.72Z"/><path class="cls-12" d="M930.77,127.92a2.36,2.36,0,0,1,1.23-.15C931.62,128.07,931.19,127.89,930.77,127.92Z"/><path class="cls-12" d="M885,130.67a2.29,2.29,0,0,1,1.24-.14C885.82,130.82,885.39,130.65,885,130.67Z"/><path class="cls-12" d="M882.22,130.87a2.28,2.28,0,0,1,1.24-.14C883.07,131,882.64,130.84,882.22,130.87Z"/><path class="cls-12" d="M939,225.84a2.55,2.55,0,0,1-1.25.14C938.11,225.69,938.55,225.86,939,225.84Z"/><path class="cls-12" d="M936.6,226a2.62,2.62,0,0,1-1.24.14C935.74,225.89,936.18,226.06,936.6,226Z"/><path class="cls-12" d="M934.24,226.23a2.63,2.63,0,0,1-1.24.15C933.38,226.08,933.82,226.25,934.24,226.23Z"/><path class="cls-12" d="M918.92,227.61a2.43,2.43,0,0,1-1.25.14C918.06,227.46,918.5,227.63,918.92,227.61Z"/><path class="cls-12" d="M916.74,227.8a2.57,2.57,0,0,1-1.23.15C915.89,227.65,916.33,227.83,916.74,227.8Z"/><path class="cls-12" d="M912.25,228.2a2.58,2.58,0,0,1-1.26.14C911.38,228.05,911.83,228.22,912.25,228.2Z"/><path class="cls-12" d="M879.47,131.06a2.49,2.49,0,0,1,1.24-.14C880.32,131.21,879.88,131,879.47,131.06Z"/><path class="cls-12" d="M876.72,131.26a2.26,2.26,0,0,1,1.23-.14C877.57,131.41,877.13,131.24,876.72,131.26Z"/><path class="cls-12" d="M904.39,228.79a2.57,2.57,0,0,1-1.26.14C903.52,228.64,904,228.81,904.39,228.79Z"/><path class="cls-12" d="M874,131.46a2.25,2.25,0,0,1,1.23-.14C874.82,131.6,874.38,131.43,874,131.46Z"/><path class="cls-12" d="M868.67,131.85a2.25,2.25,0,0,1,1.23-.14C869.51,132,869.08,131.83,868.67,131.85Z"/><path class="cls-12" d="M949.42,230.32a2.7,2.7,0,0,1,1.26-.14C950.29,230.47,949.84,230.3,949.42,230.32Z"/><path class="cls-12" d="M946.86,230.52a2.59,2.59,0,0,1,1.26-.14C947.73,230.67,947.29,230.49,946.86,230.52Z"/><path class="cls-12" d="M944.31,230.71a2.57,2.57,0,0,1,1.26-.14C945.17,230.87,944.73,230.69,944.31,230.71Z"/><path class="cls-12" d="M941.74,230.91a2.62,2.62,0,0,1,1.27-.14C942.62,231.06,942.17,230.88,941.74,230.91Z"/><path class="cls-12" d="M939.19,231.11a2.61,2.61,0,0,1,1.27-.15C940.06,231.26,939.61,231.08,939.19,231.11Z"/><path class="cls-12" d="M897.39,231.13v1.17A1,1,0,0,1,897.39,231.13Z"/><path class="cls-12" d="M936.66,231.3a2.62,2.62,0,0,1,1.24-.14C937.52,231.45,937.08,231.28,936.66,231.3Z"/><path class="cls-12" d="M932.13,231.7a2.54,2.54,0,0,1,1.25-.15C933,231.85,932.55,231.67,932.13,231.7Z"/><path class="cls-12" d="M929.79,231.9a2.6,2.6,0,0,1,1.23-.15C930.64,232,930.21,231.87,929.79,231.9Z"/><path class="cls-12" d="M925.26,232.29a2.51,2.51,0,0,1,1.24-.15C926.12,232.44,925.68,232.26,925.26,232.29Z"/><path class="cls-12" d="M918.59,232.88a2.45,2.45,0,0,1,1.23-.15C919.44,233,919,232.85,918.59,232.88Z"/><path class="cls-12" d="M916.41,233.07a2.43,2.43,0,0,1,1.25-.14C917.27,233.23,916.83,233.05,916.41,233.07Z"/><path class="cls-12" d="M866.11,132.05a2.25,2.25,0,0,1,1.23-.14C867,132.19,866.53,132,866.11,132.05Z"/><path class="cls-12" d="M911.89,233.47a2.54,2.54,0,0,1,1.25-.15C912.75,233.62,912.31,233.44,911.89,233.47Z"/><path class="cls-12" d="M863.56,132.24a2.45,2.45,0,0,1,1.23-.14C864.41,132.39,864,132.22,863.56,132.24Z"/><path class="cls-12" d="M907,233.86a2.49,2.49,0,0,1,1.27-.14C907.83,234,907.38,233.83,907,233.86Z"/><path class="cls-12" d="M904.42,234.05a2.66,2.66,0,0,1,1.25-.14C905.28,234.2,904.84,234,904.42,234.05Z"/><path class="cls-12" d="M861,132.44a2.32,2.32,0,0,1,1.22-.14C861.85,132.59,861.42,132.42,861,132.44Z"/><path class="cls-12" d="M845.67,133.62a2.25,2.25,0,0,1,1.23-.14C846.52,133.77,846.08,133.6,845.67,133.62Z"/><path class="cls-12" d="M843.11,133.82a2.4,2.4,0,0,1,1.24-.15C844,134,843.53,133.79,843.11,133.82Z"/><path class="cls-12" d="M825.08,137.47a2.51,2.51,0,0,1-.15-1.27C825.23,136.59,825.05,137,825.08,137.47Z"/><path class="cls-12" d="M1020.08,239.29a2.62,2.62,0,0,1,.14,1.27C1019.93,240.16,1020.11,239.72,1020.08,239.29Z"/><path class="cls-12" d="M825.27,140a2.57,2.57,0,0,1-.14-1.26C825.42,139.15,825.25,139.59,825.27,140Z"/><path class="cls-12" d="M1020.27,241.82a2.38,2.38,0,0,1,.15,1.29C1020.12,242.71,1020.31,242.25,1020.27,241.82Z"/><path class="cls-12" d="M1020.48,244.21a2.7,2.7,0,0,1,.14,1.26C1020.33,245.08,1020.5,244.63,1020.48,244.21Z"/><path class="cls-12" d="M825.47,142.56a2.66,2.66,0,0,1-.14-1.25C825.62,141.7,825.45,142.14,825.47,142.56Z"/><path class="cls-12" d="M825.86,147.5a2.54,2.54,0,0,1-.14-1.28C826,146.62,825.83,147.07,825.86,147.5Z"/><path class="cls-12" d="M826.06,150a2.57,2.57,0,0,1-.14-1.26C826.21,149.17,826,149.62,826.06,150Z"/><path class="cls-12" d="M826.25,152.58a2.65,2.65,0,0,1-.14-1.25C826.4,151.72,826.23,152.16,826.25,152.58Z"/><path class="cls-12" d="M941.11,259.05a2.47,2.47,0,0,1-1.23.15C940.26,258.91,940.69,259.08,941.11,259.05Z"/><path class="cls-12" d="M936.6,259.45a2.5,2.5,0,0,1-1.24.14C935.74,259.3,936.18,259.47,936.6,259.45Z"/><path class="cls-12" d="M934.28,259.64a2.55,2.55,0,0,1-1.28.15C933.39,259.49,933.85,259.67,934.28,259.64Z"/><path class="cls-12" d="M932.07,259.84a2.57,2.57,0,0,1-1.23.14C931.22,259.69,931.66,259.86,932.07,259.84Z"/><path class="cls-12" d="M929.74,260a2.46,2.46,0,0,1-1.26.14C928.87,259.89,929.32,260.06,929.74,260Z"/><path class="cls-12" d="M925.21,260.43a2.67,2.67,0,0,1-1.25.15C924.35,260.28,924.79,260.45,925.21,260.43Z"/><path class="cls-12" d="M920.68,260.83a2.75,2.75,0,0,1-1.24.14C919.82,260.68,920.26,260.85,920.68,260.83Z"/><path class="cls-12" d="M918.36,261a2.55,2.55,0,0,1-1.28.15C917.47,260.86,917.93,261.05,918.36,261Z"/><path class="cls-12" d="M913.82,261.42a2.69,2.69,0,0,1-1.26.14C913,261.26,913.4,261.44,913.82,261.42Z"/><path class="cls-12" d="M909.29,261.81A2.54,2.54,0,0,1,908,262C908.43,261.66,908.87,261.83,909.29,261.81Z"/><path class="cls-12" d="M907,262a2.55,2.55,0,0,1-1.28.15C906.08,261.85,906.53,262,907,262Z"/><path class="cls-12" d="M904.75,262.2a2.58,2.58,0,0,1-1.23.14C903.9,262.05,904.34,262.22,904.75,262.2Z"/><path class="cls-12" d="M902.41,262.4a2.66,2.66,0,0,1-1.25.14C901.55,262.25,902,262.42,902.41,262.4Z"/><path class="cls-12" d="M900.08,262.59a2.55,2.55,0,0,1-1.28.15C899.2,262.44,899.65,262.62,900.08,262.59Z"/><path class="cls-12" d="M895.53,263a2.8,2.8,0,0,1-1.25.14C894.67,262.84,895.11,263,895.53,263Z"/><path class="cls-12" d="M893.19,263.18a2.62,2.62,0,0,1-1.27.15C892.32,263,892.76,263.21,893.19,263.18Z"/><path class="cls-12" d="M888.64,263.58a2.75,2.75,0,0,1-1.24.14C887.79,263.43,888.23,263.6,888.64,263.58Z"/><path class="cls-12" d="M886.31,263.77a2.75,2.75,0,0,1-1.27.14C885.44,263.62,885.88,263.8,886.31,263.77Z"/><path class="cls-12" d="M883.76,264a2.62,2.62,0,0,1-1.27.14C882.89,263.82,883.33,264,883.76,264Z"/><path class="cls-12" d="M881.21,264.16a2.65,2.65,0,0,1-1.28.15C880.33,264,880.78,264.19,881.21,264.16Z"/><path class="cls-12" d="M878.66,264.36a2.66,2.66,0,0,1-1.28.14C877.78,264.21,878.23,264.39,878.66,264.36Z"/><path class="cls-12" d="M826.65,157.51a2.46,2.46,0,0,1-.15-1.26C826.8,156.64,826.62,157.09,826.65,157.51Z"/><path class="cls-12" d="M826.84,160.06a2.7,2.7,0,0,1-.14-1.26C827,159.19,826.82,159.63,826.84,160.06Z"/><path class="cls-12" d="M827.24,165a2.54,2.54,0,0,1-.15-1.28C827.39,164.11,827.21,164.56,827.24,165Z"/><path class="cls-12" d="M924.53,166.71a2.57,2.57,0,0,1-.15-1.23C924.68,165.86,924.5,166.3,924.53,166.71Z"/><path class="cls-12" d="M827.43,167.52a2.65,2.65,0,0,1-.14-1.25C827.58,166.66,827.41,167.1,827.43,167.52Z"/><path class="cls-12" d="M919.45,168.17a2.6,2.6,0,0,1,.15,1.23C919.3,169,919.48,168.59,919.45,168.17Z"/><path class="cls-12" d="M827.63,169.89a2.58,2.58,0,0,1-.15-1.26C827.78,169,827.61,169.46,827.63,169.89Z"/><path class="cls-12" d="M827.83,172.24a2.54,2.54,0,0,1-.15-1.25C828,171.38,827.8,171.82,827.83,172.24Z"/><path class="cls-12" d="M925.11,173.41a2.62,2.62,0,0,1-.14-1.24C925.26,172.56,925.09,173,925.11,173.41Z"/><path class="cls-12" d="M828,174.59a2.62,2.62,0,0,1-.14-1.24C828.17,173.73,828,174.17,828,174.59Z"/><path class="cls-12" d="M925.31,175.8a2.53,2.53,0,0,1-.14-1.28C925.47,174.92,925.28,175.37,925.31,175.8Z"/><path class="cls-12" d="M828.22,177a2.53,2.53,0,0,1-.14-1.25C828.37,176.09,828.2,176.53,828.22,177Z"/><path class="cls-12" d="M828.42,179.3a2.63,2.63,0,0,1-.15-1.24C828.56,178.45,828.39,178.89,828.42,179.3Z"/><path class="cls-12" d="M828.61,181.65a2.69,2.69,0,0,1-.14-1.23C828.76,180.81,828.59,181.24,828.61,181.65Z"/><path class="cls-12" d="M896.64,180.66h1.17A1.08,1.08,0,0,1,896.64,180.66Z"/><path class="cls-12" d="M828.81,184a2.71,2.71,0,0,1-.14-1.23C829,183.16,828.79,183.6,828.81,184Z"/><path class="cls-12" d="M829,186.37a2.45,2.45,0,0,1-.14-1.23C829.15,185.52,829,186,829,186.37Z"/><path class="cls-12" d="M829.2,188.74a2.62,2.62,0,0,1-.14-1.24C829.35,187.88,829.18,188.32,829.2,188.74Z"/><path class="cls-12" d="M947.06,258.46a1.86,1.86,0,0,1-1.09.15C946.3,258.33,946.69,258.49,947.06,258.46Z"/><path class="cls-12" d="M945.07,258.66a2,2,0,0,1-1.07.15C944.33,258.53,944.71,258.68,945.07,258.66Z"/><path class="cls-12" d="M943.09,258.86A2,2,0,0,1,942,259C942.36,258.73,942.73,258.87,943.09,258.86Z"/><path class="cls-12" d="M924.92,170.88a2,2,0,0,1-.14-1.07C925.05,170.14,924.9,170.52,924.92,170.88Z"/><path class="cls-12" d="M934.47,231.5a1.9,1.9,0,0,1,1.08-.14C935.22,231.63,934.83,231.48,934.47,231.5Z"/><path class="cls-12" d="M938.8,259.25a1.9,1.9,0,0,1-1.08.14C938.05,259.12,938.44,259.27,938.8,259.25Z"/><path class="cls-12" d="M1018.7,226.17a1.79,1.79,0,0,1,.15,1C1018.58,226.88,1018.72,226.51,1018.7,226.17Z"/><path class="cls-12" d="M1019.29,231.47a1.84,1.84,0,0,1,.15,1C1019.17,232.19,1019.31,231.82,1019.29,231.47Z"/><path class="cls-12" d="M931.88,226.43a1.94,1.94,0,0,1-1,.14C931.16,226.3,931.53,226.44,931.88,226.43Z"/><path class="cls-12" d="M927.6,232.09a2,2,0,0,1,1.07-.14C928.34,232.22,928,232.08,927.6,232.09Z"/><path class="cls-12" d="M927.41,260.23a1.94,1.94,0,0,1-1.09.15C926.65,260.1,927,260.26,927.41,260.23Z"/><path class="cls-12" d="M923.27,227.22a2,2,0,0,1-1.08.14C922.52,227.08,922.9,227.23,923.27,227.22Z"/><path class="cls-12" d="M922.88,260.62a1.83,1.83,0,0,1-1.08.15C922.13,260.5,922.52,260.65,922.88,260.62Z"/><path class="cls-12" d="M923.08,232.48a2,2,0,0,1,1.07-.14C923.82,232.61,923.44,232.47,923.08,232.48Z"/><path class="cls-12" d="M920.91,232.68a1.88,1.88,0,0,1,1.07-.14C921.65,232.81,921.27,232.66,920.91,232.68Z"/><path class="cls-12" d="M920.63,181.53a1.87,1.87,0,0,1,.15,1C920.5,182.26,920.65,181.88,920.63,181.53Z"/><path class="cls-12" d="M921.09,227.41a1.93,1.93,0,0,1-1.06.14C920.35,227.28,920.73,227.42,921.09,227.41Z"/><path class="cls-12" d="M911.49,261.61a1.85,1.85,0,0,1-1.09.14C910.73,261.48,911.12,261.63,911.49,261.61Z"/><path class="cls-12" d="M924.72,168.71a1.93,1.93,0,0,1-.14-1.06C924.85,168,924.71,168.35,924.72,168.71Z"/><path class="cls-12" d="M1018.31,222.63a1.79,1.79,0,0,1,.15,1C1018.19,223.34,1018.33,223,1018.31,222.63Z"/><path class="cls-12" d="M914.23,233.27a2,2,0,0,1,1.07-.14C915,233.4,914.59,233.25,914.23,233.27Z"/><path class="cls-12" d="M914.42,228a1.88,1.88,0,0,1-1.07.14C913.68,227.87,914.06,228,914.42,228Z"/><path class="cls-12" d="M1019.49,233.24a1.93,1.93,0,0,1,.15,1C1019.37,234,1019.5,233.59,1019.49,233.24Z"/><path class="cls-12" d="M897.73,262.79a1.85,1.85,0,0,1-1.09.14C897,262.66,897.36,262.81,897.73,262.79Z"/><path class="cls-12" d="M1018.9,227.94a1.79,1.79,0,0,1,.15,1C1018.78,228.65,1018.91,228.28,1018.9,227.94Z"/><path class="cls-12" d="M919.25,166.22a1.88,1.88,0,0,1,.15,1C919.13,166.93,919.27,166.56,919.25,166.22Z"/><path class="cls-12" d="M890.85,263.38a1.94,1.94,0,0,1-1.09.14C890.09,263.25,890.48,263.4,890.85,263.38Z"/><path class="cls-12" d="M1018.51,224.4a1.87,1.87,0,0,1,.14,1C1018.39,225.11,1018.52,224.75,1018.51,224.4Z"/><path class="cls-12" d="M926.49,187.56a1.89,1.89,0,0,1-.15-1.05C926.62,186.83,926.48,187.21,926.49,187.56Z"/><path class="cls-12" d="M919.06,164.43a1.87,1.87,0,0,1,.15,1C918.93,165.16,919.07,164.78,919.06,164.43Z"/><path class="cls-12" d="M1019.69,235a1.91,1.91,0,0,1,.14,1C1019.56,235.73,1019.7,235.36,1019.69,235Z"/><path class="cls-12" d="M926.3,185.77a1.88,1.88,0,0,1-.15-1C926.42,185.06,926.28,185.43,926.3,185.77Z"/><path class="cls-12" d="M926.1,183.85a1.89,1.89,0,0,1-.15-1.07C926.23,183.1,926.08,183.49,926.1,183.85Z"/><path class="cls-12" d="M1019.1,229.71a1.87,1.87,0,0,1,.14,1C1019,230.42,1019.11,230.05,1019.1,229.71Z"/><path class="cls-12" d="M921.42,188.82a1.81,1.81,0,0,1,.14,1C921.29,189.53,921.43,189.17,921.42,188.82Z"/><path class="cls-12" d="M925.71,180.07a1.79,1.79,0,0,1-.14-1C925.83,179.36,925.69,179.73,925.71,180.07Z"/><path class="cls-12" d="M921.22,187a1.85,1.85,0,0,1,.15,1C921.09,187.76,921.23,187.39,921.22,187Z"/><path class="cls-12" d="M920.24,177.81a1.83,1.83,0,0,1,.14,1C920.11,178.53,920.25,178.16,920.24,177.81Z"/><path class="cls-12" d="M1020.67,246.74a1.18,1.18,0,0,1,0,1.15Z"/><path class="cls-12" d="M1018.11,220.86a1.82,1.82,0,0,1,.15,1C1018,221.58,1018.13,221.21,1018.11,220.86Z"/><path class="cls-12" d="M925.51,178.11a1.81,1.81,0,0,1-.14-1C925.63,177.39,925.5,177.76,925.51,178.11Z"/><path class="cls-12" d="M979.82,254.92a1.82,1.82,0,0,1-1,.15C979.1,254.8,979.47,254.94,979.82,254.92Z"/><path class="cls-12" d="M974.71,255.51a1.84,1.84,0,0,1-1,.15C974,255.39,974.36,255.53,974.71,255.51Z"/><path class="cls-12" d="M967.84,256.3a1.77,1.77,0,0,1-1,.15C967.12,256.18,967.49,256.32,967.84,256.3Z"/><path class="cls-12" d="M962.73,256.89a1.77,1.77,0,0,1-1,.15C962,256.77,962.38,256.91,962.73,256.89Z"/><path class="cls-12" d="M959.21,257.29a2,2,0,0,1-1.05.14C958.48,257.16,958.86,257.3,959.21,257.29Z"/><path class="cls-12" d="M957.23,257.48a1.85,1.85,0,0,1-1,.14C956.51,257.36,956.88,257.49,957.23,257.48Z"/><path class="cls-12" d="M955.12,257.68a1.94,1.94,0,0,1-1.09.15C954.36,257.54,954.75,257.7,955.12,257.68Z"/><path class="cls-12" d="M953.14,257.88a2,2,0,0,1-1.08.14C952.39,257.74,952.78,257.89,953.14,257.88Z"/><path class="cls-12" d="M951.15,258.07a1.8,1.8,0,0,1-1,.14C950.42,258,950.79,258.08,951.15,258.07Z"/><path class="cls-12" d="M949.17,258.27a2,2,0,0,1-1,.14C948.45,258.15,948.82,258.28,949.17,258.27Z"/><path class="cls-15" d="M858.71,98.66A12.8,12.8,0,0,0,867.14,93a15.58,15.58,0,0,0,2.3-7.71,30,30,0,0,0-1.81-12.32,1.28,1.28,0,0,0-.15-.25c-1.49-4.24-3.87-7.71-8.27-9.33-2.84-1.05-5.56-.34-8.11,1a10.6,10.6,0,0,0-5.1,6.44,2.5,2.5,0,0,1-3.25,1.7,2.53,2.53,0,0,1-1.54-3.26,16,16,0,0,1,16-11.38c5.58.23,9.29,3.38,12.36,7.61a25.07,25.07,0,0,1,3.18,6.69,36.69,36.69,0,0,1,1.79,10.48c.07,6.16-1.15,11.89-5.84,16.36a18.89,18.89,0,0,1-8.88,4.74c-.18,0-.36.13-.54.19a2.61,2.61,0,0,1-3.59-2.23A2.73,2.73,0,0,1,858.71,98.66Z"/><path class="cls-15" d="M964.25,91.31c5.56-1.24,9.14-4.53,10.45-10.13a24.79,24.79,0,0,0-1.48-16.08,1.73,1.73,0,0,0-.55-.9,5.2,5.2,0,0,0-1.35-2.45c-1.91-2.53-4.11-4.73-7.41-5.23-2.59-.39-5.22-.48-7.66.82a8.88,8.88,0,0,0-4,4.79c-.66,1.62-1.77,2.27-3.19,1.88a2.47,2.47,0,0,1-1.67-3.33c1.8-5,5.14-8.24,10.42-9.17,7.88-1.39,13.7,1.54,18.13,8a48,48,0,0,1,2.43,4.45q.12,0,.09.09s0,.06-.06.06A40.87,40.87,0,0,1,980,69.81c1,5.53.74,11-1.57,16.16a17.58,17.58,0,0,1-11.54,9.9c-.75.23-1.51.39-2.27.58-.59.52-1.17.17-1.71-.08a2.73,2.73,0,0,1-1.51-2.72,2.87,2.87,0,0,1,1.9-2.39A1,1,0,0,1,964.25,91.31Z"/><path class="cls-16" d="M988.42,63.7a25.59,25.59,0,0,1-4.79.15A25.56,25.56,0,0,1,988.42,63.7Z"/><path class="cls-17" d="M978.41,64.06a.19.19,0,0,1,0-.15l3,0A10.68,10.68,0,0,1,978.41,64.06Z"/><path class="cls-18" d="M971.12,64.28c-.65.34-1.35.11-2,.16A4.76,4.76,0,0,1,971.12,64.28Z"/><path class="cls-19" d="M855,73.71c-.64.35-1.33.11-2,.17A4.68,4.68,0,0,1,855,73.71Z"/><path class="cls-20" d="M852.41,73.91c-.59.33-1.23.12-1.84.16A4.09,4.09,0,0,1,852.41,73.91Z"/><path class="cls-21" d="M842.58,74.7c-.59.33-1.22.11-1.83.16A3.91,3.91,0,0,1,842.58,74.7Z"/><path class="cls-22" d="M847.5,74.31c-.59.33-1.23.11-1.84.15A4.09,4.09,0,0,1,847.5,74.31Z"/><path class="cls-23" d="M849.86,74.11c-.58.34-1.21.11-1.81.16A3.83,3.83,0,0,1,849.86,74.11Z"/><path class="cls-24" d="M940.07,66.64c-.52.33-1.09.12-1.64.16A3.28,3.28,0,0,1,940.07,66.64Z"/><path class="cls-25" d="M857.12,73.52c-.52.33-1.1.12-1.65.16A3.2,3.2,0,0,1,857.12,73.52Z"/><path class="cls-26" d="M844.94,74.51c-.53.33-1.11.1-1.67.15A3.28,3.28,0,0,1,844.94,74.51Z"/><path class="cls-27" d="M954.81,65.46c-.52.33-1.09.12-1.64.16A3.39,3.39,0,0,1,954.81,65.46Z"/><path class="cls-24" d="M949.9,65.86c-.52.33-1.1.11-1.64.15A3.25,3.25,0,0,1,949.9,65.86Z"/><path class="cls-24" d="M945,66.25c-.52.33-1.09.11-1.64.15A3.27,3.27,0,0,1,945,66.25Z"/><path class="cls-28" d="M820,76.86c-.43.32-.93.12-1.4.16A2.32,2.32,0,0,1,820,76.86Z"/><path class="cls-29" d="M821.75,76.66c-.44.33-1,.13-1.43.16A2.42,2.42,0,0,1,821.75,76.66Z"/><path class="cls-30" d="M831,75.68c-.44.32-.94.13-1.42.16A2.47,2.47,0,0,1,831,75.68Z"/><path class="cls-23" d="M833.15,75.49c-.46.32-1,.11-1.46.15A2.52,2.52,0,0,1,833.15,75.49Z"/><path class="cls-31" d="M825.1,76.27c-.4.32-.86.13-1.29.16A2,2,0,0,1,825.1,76.27Z"/><path class="cls-32" d="M823.33,76.46c-.39.32-.84.13-1.27.17A2.07,2.07,0,0,1,823.33,76.46Z"/><path class="cls-33" d="M964.25,91.31c-1.6.3-2.48,1.13-2.54,2.39-.08,1.7,1,2.76,2.93,2.75a1.62,1.62,0,0,1,.37,1.09c0,1.92.31,3.84.23,5.77a2.31,2.31,0,0,1-2.38,2.43,2.39,2.39,0,0,1-2.55-2.27c-.31-3.8-.48-7.61-1-11.38-.36-2.61-.79-5.21-1.22-7.81a2.57,2.57,0,0,1,1.84-3.09A2.48,2.48,0,0,1,963,83,59.51,59.51,0,0,1,964.25,91.31Z"/><path class="cls-33" d="M858.71,98.66c-.23.23-.55.16-.83.24a2.62,2.62,0,0,0-1.9,2.91,2.5,2.5,0,0,0,2.52,2.12l.78,0c0,2.26.3,4.49.22,6.75a2.57,2.57,0,0,1-2.51,2.7,2.52,2.52,0,0,1-2.61-2.68,120.16,120.16,0,0,0-1.14-14.3c-.19-1.38-.36-2.78-.42-4.17a2.49,2.49,0,0,1,2.33-2.82,2.76,2.76,0,0,1,2.74,2.45C858.19,94.14,858.44,96.4,858.71,98.66Z"/><path d="M887.1,163.33c-1,.46-2.94,1.47-5.82,3q-9.45,5-12,5.31a3.36,3.36,0,0,1-2.79-.7,3.57,3.57,0,0,1-1.23-2.32,6.51,6.51,0,0,1,2.78-6.38q3.28-2.46,14.08-6.64t13.1-4.46q3.48-.45,3.87,2.75c.2,1.54-.34,3.78-1.59,6.75q-4.5,10.47-9.8,33.88t-5.49,37.37a4.46,4.46,0,0,1-1.53,3.49A6.73,6.73,0,0,1,877,237q-4.93.62-5.5-3.87-.91-7.33,4.31-31.33T887.1,163.33Z"/><path d="M962.39,183.51q9.25-1.44,11.45-1.72a4.93,4.93,0,0,1,3.09.38c.72.42,1.17,1.4,1.37,2.93a6.11,6.11,0,0,1-1.17,4.76,6.68,6.68,0,0,1-4.55,2.28q-7.91,1-12.26,1.65-3.17,15.54-3.37,23c-.12,4.12-.46,6.87-1,8.27s-2,2.24-4.34,2.54a4.61,4.61,0,0,1-3.93-1.13,6.51,6.51,0,0,1-1.85-4.07q-.71-5.65,4-27.09Q923,199.4,918,200a6.1,6.1,0,0,1-4.82-1.44,6.57,6.57,0,0,1-2.45-4.31q-.37-3,4.65-14.67a114.53,114.53,0,0,1,12.18-21.71q7.15-10,12-10.61c3.14-.4,4.83.38,5.08,2.32q.24,2-2.26,4.21-6.77,6-13,18.74t-7.08,17.25q4.83-.6,30-4.68,4.15-17.65,7.14-27.19t4.7-12.6a6.07,6.07,0,0,1,4.53-3.42q3-.37,3.37,2.82c.15,1.24-.39,3.78-1.63,7.64s-2.5,8.38-3.78,13.59Z"/></g><g id="Layer_13" data-name="Layer 13"><g id="tree"><circle class="cls-34" cx="327.04" cy="345.56" r="41.05"/><circle class="cls-34" cx="302.41" cy="395.97" r="41.05"/><ellipse class="cls-34" cx="341.32" cy="402.51" rx="41.05" ry="63.65"/><ellipse class="cls-34" cx="302.41" cy="449.31" rx="41.05" ry="36.5"/><ellipse class="cls-35" cx="351.72" cy="468.19" rx="41.05" ry="36.5"/><ellipse class="cls-34" cx="360.6" cy="412.81" rx="41.05" ry="36.5"/><ellipse class="cls-34" cx="323.99" cy="479.6" rx="41.05" ry="36.5"/><path class="cls-36" d="M329.66,333.09c-1.23,103.35,5.8,243.05,11.23,260.85h-32c14-39,18.7-157.5,17.47-260.85Z"/><path class="cls-36" d="M315.77,404l10.93,1.87-.82,3.36-10.56-3.36A1,1,0,0,1,315.77,404Z"/><path class="cls-36" d="M315.13,476.36l9.73,1.67-.82,3.36-9.4-3A1.05,1.05,0,0,1,315.13,476.36Z"/><path class="cls-36" d="M338.78,441.3l-8,5.73L329,444.09l8.69-4.58A1.05,1.05,0,0,1,338.78,441.3Z"/><path class="cls-36" d="M333.68,380l-3.85,2.76a1.31,1.31,0,0,1-1.87-.37l-.35-.56a1.31,1.31,0,0,1,.51-1.84l4.18-2.21A1.31,1.31,0,0,1,333.68,380Z"/></g><g id="tree-2" data-name="tree"><circle class="cls-37" cx="557.96" cy="309.69" r="50.31"/><circle class="cls-37" cx="535.76" cy="367.39" r="50.31"/><ellipse class="cls-37" cx="563.03" cy="360" rx="50.31" ry="78.02"/><ellipse class="cls-37" cx="512.72" cy="412.13" rx="50.31" ry="44.74"/><ellipse class="cls-37" cx="577.84" cy="440.3" rx="66.06" ry="44.74"/><ellipse class="cls-37" cx="596.95" cy="371.93" rx="50.31" ry="44.74"/><ellipse class="cls-37" cx="525.26" cy="444.09" rx="50.31" ry="44.74"/><path class="cls-36" d="M559,319.8c-1.27,104.4,12.45,247.91,26.84,271.65.68,1.13-.28,2.49-1.77,2.49H527.55c-1.45,0-2.42-1.3-1.8-2.43,23-42,30.67-164.95,29.29-271.71a1.86,1.86,0,0,1,2-1.73h0A1.86,1.86,0,0,1,559,319.8Z"/><path class="cls-36" d="M538.9,360.59l16.5,2.82-1,4.12-15.95-5.07A1,1,0,0,1,538.9,360.59Z"/><path class="cls-36" d="M537.84,449.25l15.3,2.62-1,4.11-14.79-4.7A1,1,0,0,1,537.84,449.25Z"/><path class="cls-36" d="M575.45,404.05l-12.57,9-2.23-3.6,13.69-7.21A1.05,1.05,0,0,1,575.45,404.05Z"/><path class="cls-36" d="M567.42,329.27,559,335.33a1.31,1.31,0,0,1-1.87-.37l-.75-1.22a1.3,1.3,0,0,1,.5-1.84l9.19-4.85A1.31,1.31,0,0,1,567.42,329.27Z"/></g><g id="tree-3" data-name="tree"><circle class="cls-38" cx="239.41" cy="388.48" r="36.62"/><circle class="cls-38" cx="223.25" cy="430.47" r="36.62"/><ellipse class="cls-38" cx="243.1" cy="425.1" rx="36.62" ry="56.78"/><ellipse class="cls-38" cx="206.48" cy="463.04" rx="36.62" ry="32.56"/><ellipse class="cls-38" cx="253.88" cy="483.54" rx="48.08" ry="32.56"/><ellipse class="cls-38" cx="267.79" cy="433.78" rx="36.62" ry="32.56"/><ellipse class="cls-38" cx="215.61" cy="486.3" rx="36.62" ry="32.56"/><path class="cls-39" d="M229.29,426.17l8.25,1.41-.72,3-8-2.53A1,1,0,0,1,229.29,426.17Z"/><path class="cls-39" d="M228.84,490.75,235.9,492l-.73,3-6.82-2.17A1.05,1.05,0,0,1,228.84,490.75Z"/><path class="cls-39" d="M248.77,459.58,243,463.73l-1.62-2.62,6.29-3.32A1.06,1.06,0,0,1,248.77,459.58Z"/><path class="cls-39" d="M242.11,405.73l-1.65,1.19a1.31,1.31,0,0,1-1.87-.37l-.15-.24a1.31,1.31,0,0,1,.5-1.85l1.8-.94A1.3,1.3,0,0,1,242.11,405.73Z"/><path class="cls-39" d="M236.31,395.18c-.94,78.62,3.32,193.74,8,198.44h-19.7c7.51-14.28,10.13-119.82,9.19-198.44h2.49Z"/></g><g id="tree-4" data-name="tree"><circle class="cls-40" cx="143.08" cy="393.12" r="35.47"/><circle class="cls-40" cx="123.36" cy="436.91" r="35.47"/><ellipse class="cls-40" cx="123.36" cy="466.17" rx="35.47" ry="31.55"/><ellipse class="cls-40" cx="141.57" cy="504.63" rx="46.57" ry="31.55"/><ellipse class="cls-40" cx="162.47" cy="429.57" rx="35.47" ry="31.55"/><ellipse class="cls-40" cx="158.83" cy="472.18" rx="35.47" ry="31.55"/><path class="cls-41" d="M143.25,400.54c-.67,55.21,5.87,193.4,5.09,193.4h-11c-.77,0,4.53-137,3.81-193.4a1.06,1.06,0,0,1,2.09,0Z"/><path class="cls-41" d="M133.7,429.7l7.57,1.3-.7,2.9-7.32-2.32A1,1,0,0,1,133.7,429.7Z"/><path class="cls-41" d="M135.2,493.19l6.37,1.09-.71,2.9-6.16-2A1,1,0,0,1,135.2,493.19Z"/><path class="cls-41" d="M147.71,464.52l-5.21,3.74-1.57-2.53,5.67-3A1.06,1.06,0,0,1,147.71,464.52Z"/><path class="cls-41" d="M145.21,410.18l-1.08.78a1.31,1.31,0,0,1-1.87-.37l-.1-.16a1.3,1.3,0,0,1,.51-1.84l1.17-.62A1.3,1.3,0,0,1,145.21,410.18Z"/></g><path class="cls-39" d="M54.62,106.27V611.56H700V106.27Zm616.09,476H83.94V135.59H670.71Z"/><path class="cls-39" d="M82.12,135.21V581.85H375.51V135.21ZM216.6,557.42h-110V373.19H216.6Zm0-208.66h-110V159.64H216.6ZM351.08,557.42H241V373.19h110Zm0-208.66H241V159.64h110Z"/><path class="cls-39" d="M376.85,135.21V581.85H670.24V135.21ZM511.33,557.42h-110V373.19H511.33Zm0-208.66h-110V159.64H511.33ZM645.8,557.42h-110V373.19h110Zm0-208.66h-110V159.64h110Z"/><path class="cls-42" d="M744.86,458.26c16.43,37.45,34.61,36.26,50.9,38.47,20.66,2.8,19.55,4.12,24.68,9.87,18.55,20.8,15.15,65.48-2.73,88.17-43.14,54.76-238.13-7.7-249.44-60.51-2.74-12.8,54.38-2.81,101.36-58"/><path class="cls-43" d="M733.15,548.53c49.93-9.8,67.3-35.83,73.15-49.9C798.49,493,788.75,496,788.75,496c-.58,22-38.43,42.64-81.67,40.73s-56.2-42.21-56.2-42.21-6.12-1.07-15.29,4C641.33,515,664.05,562.08,733.15,548.53Z"/><path class="cls-43" d="M944.91,624.82c-5-51.7-43.78-77.58-52.94-86.55-36.49,0-87.28,102.87-60.81,157H955.64S949.92,676.53,944.91,624.82Z"/><path class="cls-43" d="M573.28,528.24c-6.6,3.68-29.44,10.15-34.25,13.86-14,10.77-97.29,153.12-97.29,153.12H535C531.46,651,541.86,588.26,573.28,528.24Z"/><path class="cls-44" d="M831.16,695.22c-2.78-9.44-14.52-52.88,60.81-157-26.19-25.64-64.64-35.82-85.67-39.64-5.85,14.07-23.22,40.1-73.15,49.9-69.1,13.55-91.82-33.57-97.56-50-1,.2-1.91.43-2.85.7-11.47,3.2-36.57,16.8-63.36,31.74C538,591,524.42,651,528,695.22H831.16Z"/><path class="cls-45" d="M615.08,306.27s-11.41,57.88.68,98S650.82,491,663.7,499.47s33.17,15,61.82,2.68,40.64-82,40.64-82,11.33-.78,13.68-15.65c1.28-8.12,1.17-22.89,7.45-29.92,2.66-3,.33-18.57-2-21.3-5.4-6.2-10.93-1.7-10.93-1.7s-17.54-34-15.75-38.75S654.9,242.06,615.08,306.27Z"/><path class="cls-46" d="M610.25,354.56s-14.94-43.48-9.11-53.33.57-19.24,21.73-31.68a120.14,120.14,0,0,1,45.67-16c14.1-1.88,12.46-4.69,44.4-.17,18,2.55,34.9,6.22,48,28.93s17.53,21.77,16,36.6-2.59,32.65-2.59,32.65-5.91,2-8,21.28c-2.7,25.44-11.23-25-25.55-50.64-9.87-17.68-5.34-22.36-27-27.11-18.1-4-89.56,2.85-97.17,14.71-6.69,10.44-3,32.12-6.4,44.76"/><path class="cls-47" d="M610.6,376.77a4,4,0,0,1-3.12-6.48c.39-.48,9.68-11.76,28.07-9.82a4,4,0,0,1-.84,8c-13.89-1.47-20.73,6.55-21,6.89A4,4,0,0,1,610.6,376.77Z"/><path class="cls-47" d="M680.29,363.59a4,4,0,0,1-2.08-7.41c.6-.37,15-8.83,36.86-3.11a4,4,0,1,1-2,7.74c-18.46-4.83-30.23,1.93-30.72,2.22A4,4,0,0,1,680.29,363.59Z"/><path class="cls-47" d="M664.13,437.46c-4.21,0-7.17-1-9-3.16-3.64-4.2-2.24-11.41.13-21.13,5.57-22.8,1.3-32.11,1.26-32.21a1.5,1.5,0,0,1,2.69-1.32c.2.4,4.85,10.18-1,34.24-2,8.26-3.47,15.36-.78,18.45,1.57,1.81,4.68,2.46,9.51,2a1.5,1.5,0,1,1,.29,3A30.21,30.21,0,0,1,664.13,437.46Z"/><path class="cls-47" d="M643.27,380.47a10.55,10.55,0,0,1,1.66.15,5.18,5.18,0,0,1,3.8,2.21,2.5,2.5,0,0,1-4.11,2.84c-1.78-.88-11.41.59-21.19,8.5a2.5,2.5,0,0,1-3.14-3.89C628.65,383.52,637.73,380.38,643.27,380.47Z"/><path class="cls-47" d="M702,375.14c7.07-1.67,14.65-1.77,18.73.78a2.5,2.5,0,0,1-2.65,4.24c-4.07-2.55-15.87-1.07-23.38,2.92a2.5,2.5,0,1,1-2.35-4.42A41.42,41.42,0,0,1,702,375.14Z"/><path class="cls-48" d="M627.56,476.53l-.31.58a3.39,3.39,0,0,0-.07-.76A1.48,1.48,0,0,1,627.56,476.53Zm-5,11.73.29-.2,0,0Zm-.56-9.38a2.27,2.27,0,0,0-.23-.77,4,4,0,0,1,.71.19C622.34,478.5,622.19,478.69,622,478.88Zm35.56,12.69c-.12.19-.23.35-.33.52a.36.36,0,0,1,0-.09l-.1-.14Z"/><path class="cls-47" d="M680.39,470.54A2.5,2.5,0,0,1,682,475.2c-.93.51-1.68,1-2.36,1.39-3.29,2-5.19,3-12.46,4a2.5,2.5,0,0,1-.66-5h0c6.52-.83,7.85-1.65,10.49-3.28.72-.44,1.53-.94,2.52-1.49A2.42,2.42,0,0,1,680.39,470.54Z"/></g></svg>