<svg xmlns="http://www.w3.org/2000/svg" viewBox="0 0 817.02 707.25"><defs><style>.cls-1{fill:#f5a688;}.cls-2{fill:#099;}.cls-3{fill:#366;}.cls-4{fill:#ffccae;}.cls-5{fill:#333;}.cls-6{fill:#666;}.cls-7{fill:#f5b592;}.cls-8{fill:#ccc;}.cls-9{fill:#fff;}</style></defs><g id="Layer_12" data-name="Layer 12"><path class="cls-1" d="M467,329.92c16.43,37.45,34.6,36.26,50.9,38.47,20.66,2.8,19.55,4.12,24.68,9.87,18.55,20.81,15.15,65.49-2.73,88.17-43.14,54.76-238.13-7.69-249.44-60.51-2.75-12.8,54.38-2.81,101.36-58"/><path class="cls-2" d="M455.26,420.19c49.93-9.8,67.3-35.83,73.15-49.9-7.81-5.68-17.55-2.62-17.55-2.62-.58,22-38.43,42.65-81.67,40.73S373,366.19,373,366.19s-6.11-1.07-15.28,4C363.44,386.63,386.16,433.74,455.26,420.19Z"/><path class="cls-2" d="M667,496.49c-5-51.71-43.78-77.59-52.94-86.56-36.49,0-87.28,102.87-60.81,157H677.75S672,548.19,667,496.49Z"/><path class="cls-3" d="M553.27,566.88c-2.78-9.44-14.53-52.88,60.81-156.95-26.19-25.64-64.64-35.81-85.67-39.64-5.85,14.07-23.22,40.1-73.15,49.9-69.1,13.55-91.82-33.56-97.56-50-.95.21-1.91.44-2.85.7-11.47,3.2-36.57,16.8-63.36,31.74-31.42,60-45,120-41.43,164.27H553.27Z"/><path class="cls-4" d="M337.19,177.94s-11.41,57.87.68,97.95,35.06,86.74,47.94,95.24,33.17,15,61.82,2.68,40.64-82,40.64-82S499.6,291,502,276.14c1.28-8.12,1.17-22.89,7.45-29.91,2.66-3,.33-18.58-2-21.31-5.4-6.2-10.94-1.7-10.94-1.7s-17.53-34-15.75-38.75S377,113.72,337.19,177.94Z"/><path class="cls-5" d="M332.36,226.22s-14.94-43.48-9.11-53.32.57-19.25,21.73-31.69a120.31,120.31,0,0,1,45.67-16c14.1-1.88,12.46-4.69,44.4-.17,18,2.55,34.9,6.22,48,28.94s17.53,21.77,16,36.59-2.6,32.65-2.6,32.65-5.9,2-8,21.28c-2.7,25.44-11.24-25-25.55-50.64-9.87-17.68-5.34-22.36-27-27.11-18.1-4-89.56,2.85-97.17,14.72-6.69,10.43-3,32.11-6.4,44.75"/><path class="cls-6" d="M332.71,248.44a4,4,0,0,1-3.12-6.49c.39-.48,9.68-11.75,28.07-9.81a4,4,0,1,1-.84,8c-13.89-1.46-20.73,6.55-21,6.89A4,4,0,0,1,332.71,248.44Z"/><path class="cls-6" d="M402.4,235.25a4,4,0,0,1-2.08-7.41c.6-.36,15-8.83,36.86-3.11a4,4,0,0,1-2,7.74c-18.46-4.82-30.23,1.94-30.72,2.23A4.06,4.06,0,0,1,402.4,235.25Z"/><path class="cls-6" d="M386.24,309.12c-4.21,0-7.17-1-9-3.16-3.64-4.2-2.24-11.4.13-21.13,5.57-22.8,1.3-32.11,1.26-32.2a1.5,1.5,0,0,1,2.69-1.33c.2.41,4.84,10.18-1,34.24-2,8.27-3.47,15.36-.78,18.46,1.57,1.81,4.68,2.45,9.5,2a1.5,1.5,0,0,1,.3,3A30.5,30.5,0,0,1,386.24,309.12Z"/><path class="cls-6" d="M347.46,266.58a10.89,10.89,0,0,1-1.67-.11,5.2,5.2,0,0,1-3.84-2.15,2.5,2.5,0,0,1,4.07-2.91c1.8.85,11.4-.77,21.05-8.84a2.5,2.5,0,1,1,3.2,3.84C362,263.3,353,266.58,347.46,266.58Z"/><path class="cls-6" d="M431.73,255.24c-7.26,0-14.65-1.65-18-5.07a2.5,2.5,0,1,1,3.55-3.52c3.38,3.42,15.2,4.7,23.43,2.55a2.5,2.5,0,0,1,1.26,4.84A41.44,41.44,0,0,1,431.73,255.24Z"/><path class="cls-7" d="M349.67,348.19l-.31.59a3.33,3.33,0,0,0-.07-.76A1.63,1.63,0,0,1,349.67,348.19Zm-5,11.73.3-.2,0,0A1.91,1.91,0,0,1,344.7,359.92Zm-.55-9.38a2.27,2.27,0,0,0-.23-.77,3.3,3.3,0,0,1,.71.2A6.05,6.05,0,0,0,344.15,350.54Zm35.55,12.69c-.11.19-.22.36-.33.52a.36.36,0,0,0,0-.09.85.85,0,0,0-.09-.14Z"/><rect class="cls-8" x="316.49" y="332.97" width="60.06" height="5" transform="translate(-135.27 313.23) rotate(-41.43)"/><path class="cls-1" d="M324,403.37,345.29,386c7-8.4,15.4-35.19-5.64-43.79-20.11-8.21-36.3-18.65-46.78-4.89S287.51,377,287.51,377Z"/><path class="cls-1" d="M324,403.37s-24.47,43.25-40.2,45.21-47.15-13.68-45.95-15.15c29.81-36.68,50.74-47.09,49.65-56.39S324,403.37,324,403.37Z"/><path class="cls-2" d="M314.92,435.67c12.27-1.67-24.68-64.06-38.53-57.65S212,470,185.91,500.35c-32.37,37.71,53.4,88.69,73.66,78.58C269,574.24,297.12,438.09,314.92,435.67Z"/><ellipse class="cls-9" cx="370.85" cy="314" rx="6.75" ry="5.28" transform="translate(-113.41 354.2) rotate(-45)"/><path class="cls-6" d="M388.65,351.29a2.5,2.5,0,0,1-.92-4.83c1-.39,1.8-.74,2.53-1.07,3.54-1.56,5.56-2.3,12.89-2.24a2.5,2.5,0,0,1,0,5h0c-6.57-.06-8,.57-10.83,1.82-.78.34-1.65.73-2.7,1.14A2.51,2.51,0,0,1,388.65,351.29Z"/></g></svg>